<svg xmlns="http://www.w3.org/2000/svg" viewBox="0 0 1387.53 1387.53"><defs><style>.cls-1{fill:#4c4b4b;}.cls-2{fill:#ca2e17;}.cls-3{fill:#ffce00;}.cls-4{fill:#9b1915;}</style></defs><g id="Laag_2" data-name="Laag 2"><g id="Laag_1-2" data-name="Laag 1"><rect class="cls-1" width="1387.53" height="1387.53"/><path class="cls-2" d="M619.88,511.38a2.75,2.75,0,0,0,.51-1.6V345.3a2.81,2.81,0,0,0-.24-1.12c2.45-21.48,21.18-38.33,43.73-38.33h58.68c22.19,0,40.68,16.31,43.6,37.29v211a3.64,3.64,0,0,0,.41,1.69v1.63H769l-2.47,3.07V933.28c0,23.71-19.8,43.1-44,43.1H663.88c-24.2,0-44-19.39-44-43.1V511.38Zm263-168.24v-2.6c0-16.35,20.25-29.73,45-29.73h56.14v-4.09c0-14.1-11.78-25.64-26.18-25.64H428.55c-14.39,0-26.17,11.54-26.17,25.64v2.44h58.17c23.64,0,43,13.38,43,29.73V950c0,16.36-19.35,29.74-43,29.74H402.73a26.11,26.11,0,0,0,25.82,21.47H957.89a26.12,26.12,0,0,0,25.83-21.46H927.93c-24.77,0-45-13.38-45-29.74V343.14ZM880,557.46h2.92v-3.32m-116.34,1.69v1.63h2.51"/><path class="cls-3" d="M515.73,479.52l-26.31-64.95-24.81,64.95Zm78.73,73.93H512.1v-2.87c7.44-.68,12.62-1.92,15.53-3.76,5.18-3.26,7.78-7.79,7.78-13.53,0-3.42-1.15-8-3.5-13.81l-2.14-5.27-12-29.56H462.59l-6.54,17.29-3.12,7.78q-5.65,13.8-5.65,21.69a18.36,18.36,0,0,0,2.09,8.65,17.84,17.84,0,0,0,5.57,6.5c3.25,2.27,7.44,3.59,12.53,4v2.87H411.34v-2.87A26,26,0,0,0,423,547.33a33.53,33.53,0,0,0,9.79-9.28,72.28,72.28,0,0,0,7.83-13.22q3.79-8.1,10.1-24.26l45.87-118.22h7.14l54.51,131.74q6.16,14.94,9.8,21.3a31.34,31.34,0,0,0,7.87,9.67,23,23,0,0,0,6.89,3.47,74.83,74.83,0,0,0,11.68,2.05v2.87Z"/><path class="cls-3" d="M754.9,382.35l1.5,54.51-2.86.25q-8.67-27.84-22.21-41.41a44.31,44.31,0,0,0-32.69-13.61c-10,0-18.48,2-25.62,6.08s-13.83,10.65-20,19.76q-18.81,27.93-18.78,63.93a114,114,0,0,0,4.49,32.38,86.31,86.31,0,0,0,13.18,26.92q16.82,22.51,41,22.54a40.76,40.76,0,0,0,17.92-4,36.73,36.73,0,0,0,13.78-11q7.38-9.75,7.4-23.19c0-8.25-2.22-14.24-6.72-17.92S713.4,492,703.14,492v-2.87h80V492c-7.36.68-12.49,1.71-15.49,3.08a13,13,0,0,0-6.54,7.06q-2.39,5.52-2.4,22c0,3,.17,7.7.51,14.07l.26,2.87a24,24,0,0,0-7-1.75c-1.84,0-4.19.94-7,2.86a83.63,83.63,0,0,1-25.33,11.51,112.26,112.26,0,0,1-30.46,4q-22,0-39.8-7.53a71,71,0,0,1-28.75-21.56,75.8,75.8,0,0,1-12.7-25,105.17,105.17,0,0,1-4.45-30.85,107.76,107.76,0,0,1,8-41.71,83.49,83.49,0,0,1,22.6-31.84,86.27,86.27,0,0,1,27.42-15.66A97.36,97.36,0,0,1,694.75,378a87.4,87.4,0,0,1,18.61,1.89A95.77,95.77,0,0,1,731.59,386l7.4,3.38a13,13,0,0,0,5,1.11c3.33,0,5.9-2.7,7.65-8.13Z"/><path class="cls-3" d="M925.66,382.35l2.1,41.37-2.87.09c-1.06-7-2.86-12.84-5.39-17.42a37.44,37.44,0,0,0-10.91-12.15,36,36,0,0,0-13.9-6.2c-5.35-1.24-12.45-1.84-21.31-1.84H844.67v75.26h7.53q11.43,0,17.2-1.5a19.48,19.48,0,0,0,9.37-5.39A22.68,22.68,0,0,0,884,446a77.69,77.69,0,0,0,2.82-14.59l2.87.13-.51,67.13H886.3A67.55,67.55,0,0,0,883,483.11a28.58,28.58,0,0,0-6.07-10,21.78,21.78,0,0,0-9.76-5.91,52.8,52.8,0,0,0-15.32-1.88h-7.14V494a245.06,245.06,0,0,0,.9,25A41.14,41.14,0,0,0,849,532.18a27,27,0,0,0,13,13.22q8.73,4.19,23,4.2c10,0,18.44-1.29,25.2-3.81a38,38,0,0,0,16.56-11.85A46.94,46.94,0,0,0,934,521.62a108.18,108.18,0,0,0,5.22-18.19l2.86.13-1.62,49.89H790.93v-2.87a39.87,39.87,0,0,0,11.6-2,20.82,20.82,0,0,0,8-5.26,21.09,21.09,0,0,0,5.31-10.23c1-4.11,1.45-10.44,1.45-19V421.71c0-8.56-.47-14.89-1.45-19a21.05,21.05,0,0,0-5.31-10.22,19.74,19.74,0,0,0-7.82-5.26,39.94,39.94,0,0,0-11.73-2v-2.87Z"/><path class="cls-3" d="M541.27,740a41.72,41.72,0,0,0-11.47,1.92,22.19,22.19,0,0,0-8,5.22,18.34,18.34,0,0,0-4.15,5.82,27.88,27.88,0,0,0-1.84,8.09A115,115,0,0,0,515,776.5v92.38c0,8.64.51,15,1.49,19.21a20.72,20.72,0,0,0,5.39,10c4.63,4.45,11.08,6.85,19.43,7.27v2.87h-80v-2.87a40.37,40.37,0,0,0,11.72-2,22.91,22.91,0,0,0,8-5.22,21.11,21.11,0,0,0,5.3-10.23c1-4.1,1.46-10.43,1.46-19V756.82L423.09,908.24h-2.65L356.26,759.05V868.88c0,8.64.47,15,1.46,19.08A21.21,21.21,0,0,0,363,898.1a20.93,20.93,0,0,0,8,5.26,40.12,40.12,0,0,0,11.6,2v2.87H324.82v-2.87a40,40,0,0,0,11.59-2,20.93,20.93,0,0,0,13.26-15.49c1-4.1,1.46-10.43,1.46-19V776.5q0-5.78-.38-10.91c-.43-6.2-1.37-10.69-2.87-13.56a20.08,20.08,0,0,0-8.6-8.68c-3.64-1.89-8.47-3-14.46-3.34v-2.87H379.2l54.29,134,56.26-134h51.52V740Z"/><path class="cls-3" d="M607.46,819.89h12.28c8.3,0,14.67-.6,19.16-1.8a28.69,28.69,0,0,0,12-6.71q12.27-11.18,12.29-29.74a48.36,48.36,0,0,0-3.6-18.87,34.43,34.43,0,0,0-10.23-13.95,32.87,32.87,0,0,0-18.18-7.53c-1.92-.17-6.29-.26-13.17-.26H607.46v78.86Zm0,4v45c0,8.51.47,14.84,1.45,19a20.94,20.94,0,0,0,13.18,15.45,39.8,39.8,0,0,0,11.72,2v2.87H553.72v-2.87a40.31,40.31,0,0,0,11.72-2,21.55,21.55,0,0,0,7.83-5.22A20.59,20.59,0,0,0,578.66,888c.9-4.11,1.37-10.44,1.37-19.08V776.5a110.06,110.06,0,0,0-.94-16.64,26.32,26.32,0,0,0-3.21-9.46,20.32,20.32,0,0,0-8.26-7.44,35.23,35.23,0,0,0-13-3h-.86v-2.87h75.56c13.22,0,22.93.68,29.22,2a42.4,42.4,0,0,1,17.16,8q17.77,13.54,17.8,36.12,0,22.9-18.06,33.58c-6.24,3.68-13.86,5.91-22.8,6.63-2.87.26-9.71.39-20.58.39Z"/><path class="cls-3" d="M782.2,737.14V740a39.66,39.66,0,0,0-11.6,2,20.86,20.86,0,0,0-8,5.26c-3.25,3.34-5.26,8-6,13.91a135.63,135.63,0,0,0-.77,15.31v92.38a109.32,109.32,0,0,0,1,16.43,26.33,26.33,0,0,0,3.29,9.67,20,20,0,0,0,8.39,7.44c3.42,1.63,8,2.61,13.65,3v2.87H702.14v-2.87a40.31,40.31,0,0,0,11.72-2,21.67,21.67,0,0,0,7.84-5.22A20.59,20.59,0,0,0,727.09,888c.89-4.11,1.36-10.44,1.36-19.08V776.5c0-8.64-.47-15-1.36-19.08a20.63,20.63,0,0,0-5.39-10.14,19.52,19.52,0,0,0-7.92-5.26,40.08,40.08,0,0,0-11.64-2v-2.87Z"/><path class="cls-3" d="M848.26,821.77H853c10.4,0,17.84-.6,22.29-1.75a29.18,29.18,0,0,0,12.63-7.28c8.77-8.34,13.17-18.74,13.17-31.1a46.33,46.33,0,0,0-3.8-18.61,38.89,38.89,0,0,0-10.61-14.34,30.15,30.15,0,0,0-12.58-5.94c-4.84-1.16-11.72-1.72-20.71-1.72h-5.13v80.74Zm0,2.74v44.37c0,8.56.47,14.89,1.45,19A21.11,21.11,0,0,0,855,898.1a21.48,21.48,0,0,0,7.88,5.22,40,40,0,0,0,11.72,2v2.87h-80.1v-2.87a40.39,40.39,0,0,0,11.73-2,21.71,21.71,0,0,0,7.83-5.22A20.59,20.59,0,0,0,819.46,888c.9-4.11,1.37-10.44,1.37-19.08V776.5c0-8.64-.47-15-1.37-19.08a20.63,20.63,0,0,0-5.39-10.14,19.52,19.52,0,0,0-7.92-5.26,40,40,0,0,0-11.64-2v-2.87h60.42c10.1,0,16.73,0,19.94.13,12.92.6,23.1,2.35,30.46,5.26a41.4,41.4,0,0,1,19.21,15,39.8,39.8,0,0,1,6.85,23.15q0,19.58-14.76,31.32a42.76,42.76,0,0,1-10,5.78A90,90,0,0,1,892.07,822c5,2.09,8.68,4.23,11.12,6.5a28.59,28.59,0,0,1,5.22,6.59c1.58,2.61,4,7.27,7.14,14q11.18,22.9,16.91,33.5c3.81,7.06,7,12.19,9.58,15.36a19.4,19.4,0,0,0,6.08,5.39,22.52,22.52,0,0,0,8.08,2v2.87H914.61c-2.09-4.58-3.42-7.53-4-8.77l-8.77-19.94a328.22,328.22,0,0,0-16-31.7c-5.34-9.12-10.22-15.32-14.67-18.7a21.24,21.24,0,0,0-7.28-3.55,35.45,35.45,0,0,0-9.49-1.07Z"/><path class="cls-3" d="M1095.47,737.14l2.09,41.37-2.86.09a52.63,52.63,0,0,0-5.39-17.41A37.45,37.45,0,0,0,1078.4,749a35.83,35.83,0,0,0-13.91-6.21c-5.35-1.24-12.45-1.84-21.3-1.84h-28.71v75.26H1022q11.41,0,17.2-1.5a19.44,19.44,0,0,0,9.37-5.39,22.68,22.68,0,0,0,5.22-8.6,77.69,77.69,0,0,0,2.82-14.59l2.87.13-.52,67.13h-2.87a67.09,67.09,0,0,0-3.33-15.53,28.75,28.75,0,0,0-6.08-10,21.83,21.83,0,0,0-9.75-5.91,53.15,53.15,0,0,0-15.32-1.88h-7.14v28.71a245.06,245.06,0,0,0,.9,25,41.29,41.29,0,0,0,3.37,13.14,27.11,27.11,0,0,0,13,13.22q8.73,4.17,23,4.19c10,0,18.44-1.29,25.2-3.81a38,38,0,0,0,16.56-11.85,46.48,46.48,0,0,0,7.31-12.32,107.37,107.37,0,0,0,5.22-18.18l2.87.12-1.63,49.89H960.74v-2.87a39.73,39.73,0,0,0,11.59-2,20.78,20.78,0,0,0,8-5.26,21,21,0,0,0,5.31-10.23c1-4.1,1.45-10.43,1.45-19V776.5c0-8.55-.47-14.88-1.45-19a21.1,21.1,0,0,0-5.31-10.22,19.84,19.84,0,0,0-7.83-5.26,39.87,39.87,0,0,0-11.72-2v-2.87Z"/><path class="cls-4" d="M212.69,1058.34h44.65v-20.16a45.1,45.1,0,0,0-.73-9.57,10.6,10.6,0,0,0-2.66-5.09,10.41,10.41,0,0,0-4-2.63,20.29,20.29,0,0,0-5.88-1v-1.44h40.15v1.44a20.1,20.1,0,0,0-5.82,1,10.41,10.41,0,0,0-4,2.63,10.56,10.56,0,0,0-2.66,5.13,45,45,0,0,0-.73,9.53v46.32a44.66,44.66,0,0,0,.73,9.5,11,11,0,0,0,2.66,5.15,11.52,11.52,0,0,0,4,2.62,20,20,0,0,0,5.82,1v1.44H244.08v-1.44a20.22,20.22,0,0,0,5.88-1,11.52,11.52,0,0,0,4-2.62,10.61,10.61,0,0,0,2.66-5.08,45.29,45.29,0,0,0,.73-9.57v-23.2H212.69v23.2a44.88,44.88,0,0,0,.73,9.52,10.73,10.73,0,0,0,2.66,5.13,10.94,10.94,0,0,0,3.93,2.62,20.25,20.25,0,0,0,5.9,1v1.44H185.75v-1.44a20.35,20.35,0,0,0,5.88-1,10.82,10.82,0,0,0,3.92-2.62,10.34,10.34,0,0,0,2.7-5.08,48,48,0,0,0,.69-9.57v-46.32a47.89,47.89,0,0,0-.69-9.57,10.33,10.33,0,0,0-2.7-5.09,9.64,9.64,0,0,0-4-2.63,20.24,20.24,0,0,0-5.83-1v-1.44h40.16v1.44a20.25,20.25,0,0,0-5.84,1,10.41,10.41,0,0,0-4,2.63,10.73,10.73,0,0,0-2.66,5.13,45,45,0,0,0-.73,9.53v20.16Z"/><path class="cls-4" d="M358,1018.44l1.05,20.75-1.44,0a26.28,26.28,0,0,0-2.7-8.73,18.85,18.85,0,0,0-5.47-6.1,18,18,0,0,0-7-3.11,49.43,49.43,0,0,0-10.69-.92h-14.4v37.74h3.78a37.59,37.59,0,0,0,8.63-.75,9.75,9.75,0,0,0,4.69-2.71,11.4,11.4,0,0,0,2.62-4.31,39,39,0,0,0,1.42-7.32l1.44.07-.26,33.66h-1.44a33.66,33.66,0,0,0-1.67-7.78,14.43,14.43,0,0,0-3.05-5,11,11,0,0,0-4.89-3A26.57,26.57,0,0,0,321,1060h-3.59v14.4a119.79,119.79,0,0,0,.46,12.55,20.57,20.57,0,0,0,1.69,6.58,13.52,13.52,0,0,0,6.5,6.63q4.38,2.1,11.54,2.1a36.62,36.62,0,0,0,12.64-1.9,19.05,19.05,0,0,0,8.3-6,22.93,22.93,0,0,0,3.67-6.18,52.69,52.69,0,0,0,2.62-9.11l1.44.06-.82,25h-75v-1.44a20,20,0,0,0,5.81-1,10.43,10.43,0,0,0,4-2.64,10.56,10.56,0,0,0,2.66-5.13,44.22,44.22,0,0,0,.73-9.52v-46.32a44.32,44.32,0,0,0-.73-9.53,10.56,10.56,0,0,0-2.66-5.13,9.81,9.81,0,0,0-3.92-2.63,20.23,20.23,0,0,0-5.88-1v-1.44Z"/><path class="cls-4" d="M450.84,1067.16l-13.19-32.56-12.45,32.56Zm39.48,37.08H449v-1.44q5.6-.51,7.79-1.89a7.64,7.64,0,0,0,3.9-6.78,19.69,19.69,0,0,0-1.76-6.93l-1.07-2.64-6-14.82H424.2l-3.29,8.66-1.56,3.91q-2.84,6.92-2.83,10.88a9.14,9.14,0,0,0,1.05,4.33,9,9,0,0,0,2.78,3.26,12.73,12.73,0,0,0,6.29,2v1.44H398.49v-1.44a13.13,13.13,0,0,0,5.84-1.63,16.82,16.82,0,0,0,4.91-4.66,36.24,36.24,0,0,0,3.93-6.63c1.26-2.7,3-6.76,5.06-12.16l23-59.28h3.58l27.34,66.06a101.06,101.06,0,0,0,4.91,10.68A15.58,15.58,0,0,0,481,1100a11.66,11.66,0,0,0,3.45,1.74,36.94,36.94,0,0,0,5.86,1v1.44Z"/><path class="cls-4" d="M570.77,1018.44l.75,27.33-1.43.13q-4.35-14-11.14-20.77a22.25,22.25,0,0,0-16.39-6.82,25.51,25.51,0,0,0-12.85,3.05q-5.38,3.06-10,9.91-9.43,14-9.42,32a57.16,57.16,0,0,0,2.25,16.24,43.14,43.14,0,0,0,6.61,13.5q8.43,11.3,20.55,11.31a20.5,20.5,0,0,0,9-2,18.48,18.48,0,0,0,6.91-5.54,18.72,18.72,0,0,0,3.71-11.63c0-4.14-1.11-7.14-3.36-9s-5.95-2.77-11.1-2.77V1072h40.1v1.44a26.71,26.71,0,0,0-7.77,1.54,6.57,6.57,0,0,0-3.28,3.54c-.79,1.85-1.2,5.52-1.2,11,0,1.52.09,3.86.26,7.06l.13,1.43a12.3,12.3,0,0,0-3.52-.88,6.85,6.85,0,0,0-3.52,1.44,42.25,42.25,0,0,1-12.7,5.78,56.84,56.84,0,0,1-15.28,2,50.79,50.79,0,0,1-19.95-3.78,35.6,35.6,0,0,1-14.42-10.81,38.16,38.16,0,0,1-6.37-12.55,52.89,52.89,0,0,1-2.23-15.47,54,54,0,0,1,4-20.92,41.68,41.68,0,0,1,11.33-16,43.19,43.19,0,0,1,13.75-7.85,48.67,48.67,0,0,1,16.46-2.77,43.88,43.88,0,0,1,9.33.94,49.12,49.12,0,0,1,9.14,3.07l3.71,1.7a6.67,6.67,0,0,0,2.51.56q2.52,0,3.84-4.08Z"/><path class="cls-4" d="M656.4,1018.44l1.05,20.75-1.44,0a26.28,26.28,0,0,0-2.7-8.73,18.85,18.85,0,0,0-5.47-6.1,18.09,18.09,0,0,0-7-3.11,49.43,49.43,0,0,0-10.69-.92H615.79v37.74h3.77a37.53,37.53,0,0,0,8.63-.75,9.8,9.8,0,0,0,4.69-2.71,11.4,11.4,0,0,0,2.62-4.31,39,39,0,0,0,1.42-7.32l1.43.07-.25,33.66h-1.44A34.2,34.2,0,0,0,635,1069a14.43,14.43,0,0,0-3-5,11.08,11.08,0,0,0-4.89-3,26.57,26.57,0,0,0-7.68-.94h-3.58v14.4a123.4,123.4,0,0,0,.45,12.55,20.32,20.32,0,0,0,1.69,6.58,13.52,13.52,0,0,0,6.5,6.63q4.38,2.1,11.54,2.1a36.62,36.62,0,0,0,12.64-1.9,19.05,19.05,0,0,0,8.3-6,22.93,22.93,0,0,0,3.67-6.18,53.6,53.6,0,0,0,2.62-9.11l1.44.06-.82,25h-75v-1.44a20,20,0,0,0,5.81-1,10.43,10.43,0,0,0,4-2.64,10.56,10.56,0,0,0,2.66-5.13,44.22,44.22,0,0,0,.73-9.52v-46.32a44.32,44.32,0,0,0-.73-9.53,10.56,10.56,0,0,0-2.66-5.13,9.81,9.81,0,0,0-3.92-2.63,20.29,20.29,0,0,0-5.88-1v-1.44Z"/><path class="cls-4" d="M719.37,1062.85q0,18.24,9.93,30.77a29.66,29.66,0,0,0,9.46,8.13,25.15,25.15,0,0,0,11.54,2.55,25.52,25.52,0,0,0,11.59-2.51,29.8,29.8,0,0,0,9.53-8.17q9.95-12.58,9.93-31a65.93,65.93,0,0,0-2.72-19.16,46.6,46.6,0,0,0-7.7-15.32,25.42,25.42,0,0,0-9-7.5,30,30,0,0,0-23.2-.05,26.51,26.51,0,0,0-9,7.55,45,45,0,0,0-7.66,15.3,67.66,67.66,0,0,0-2.7,19.44Zm-15.19-.94a43,43,0,0,1,4.52-19.59,45.59,45.59,0,0,1,13.2-15.75,50.55,50.55,0,0,1,13.94-7.64,44.65,44.65,0,0,1,15.09-2.68,43.67,43.67,0,0,1,18.73,4.25,48.27,48.27,0,0,1,15.83,12q11,12.58,11,28.62a42.84,42.84,0,0,1-2.9,15.54,44.38,44.38,0,0,1-8.41,13.64,47.48,47.48,0,0,1-16,11.89,46.7,46.7,0,0,1-38.49.1A45.31,45.31,0,0,1,715,1090.7a42,42,0,0,1-8-13.3,43.56,43.56,0,0,1-2.79-15.49Z"/><path class="cls-4" d="M832.56,1059.42v25.08a47.45,47.45,0,0,0,.69,9.46,11,11,0,0,0,2.64,5.13,10.5,10.5,0,0,0,4,2.68,20.62,20.62,0,0,0,5.88,1v1.44H805.62v-1.44a16.82,16.82,0,0,0,5.73-1,10.64,10.64,0,0,0,4.2-2.62,11.87,11.87,0,0,0,2.51-5.34,46.35,46.35,0,0,0,.75-9.37v-46.32c0-2.69-.15-5.48-.43-8.37a10.35,10.35,0,0,0-5.4-8.24,17.63,17.63,0,0,0-7.36-1.69v-1.44h65.67l1.82,20.44-1.43.31a45.49,45.49,0,0,0-2.9-7.17,20.86,20.86,0,0,0-8.31-8.47,21.14,21.14,0,0,0-7.1-2.47,70.16,70.16,0,0,0-11.07-.69h-9.74v37.1h2.51c7.43,0,12.84-1.66,16.18-5a14.35,14.35,0,0,0,3.35-5.06,28.37,28.37,0,0,0,1.5-7.64l1.44.06-.37,38.06h-1.52a31.25,31.25,0,0,0-2.36-9.89,13.3,13.3,0,0,0-5.06-5.62,18,18,0,0,0-6.2-2.29,49,49,0,0,0-9.47-.73Z"/><path class="cls-4" d="M934.84,1060.49l26.6-26.41a50.24,50.24,0,0,0,5-5.3,5.44,5.44,0,0,0,1-3.11,5,5,0,0,0-3-4.66,17.13,17.13,0,0,0-5.28-1.13v-1.44h27.08v1.44a19.67,19.67,0,0,0-4.62.9,17.11,17.11,0,0,0-4,2.25,91.76,91.76,0,0,0-8.41,7.47l-20.38,19.56,29,37,3.58,4.59a35.46,35.46,0,0,0,8.24,7.68,18.65,18.65,0,0,0,9.42,3.52v1.44H957.37v-1.44c3.13-.26,5.4-.77,6.77-1.56a3.83,3.83,0,0,0,2.09-3.53q0-2.51-2.58-6.41c-.83-1.27-2.42-3.43-4.72-6.54s-4.25-5.63-5.86-7.56l-14.13-17.53-4.1,4v20.81a44.22,44.22,0,0,0,.73,9.52,10.56,10.56,0,0,0,2.66,5.13,10.81,10.81,0,0,0,3.94,2.62,20.1,20.1,0,0,0,5.88,1v1.44H907.89v-1.44a20.22,20.22,0,0,0,5.88-1,10.94,10.94,0,0,0,3.93-2.62,10.34,10.34,0,0,0,2.7-5.08,48.73,48.73,0,0,0,.69-9.57v-46.32a48.66,48.66,0,0,0-.69-9.57,10.33,10.33,0,0,0-2.7-5.09,9.77,9.77,0,0,0-4-2.63,20.31,20.31,0,0,0-5.84-1v-1.44h40.16v1.44a20.11,20.11,0,0,0-5.83,1,10.41,10.41,0,0,0-4,2.63,10.56,10.56,0,0,0-2.66,5.13,44.32,44.32,0,0,0-.73,9.53v22.31Z"/><path class="cls-4" d="M1039.17,1018.44v1.44a20.09,20.09,0,0,0-5.81,1,10.41,10.41,0,0,0-4,2.63,11.81,11.81,0,0,0-3,7,69.46,69.46,0,0,0-.38,7.68v46.32a55.15,55.15,0,0,0,.49,8.24,13.5,13.5,0,0,0,1.65,4.85,10.14,10.14,0,0,0,4.21,3.73,18.85,18.85,0,0,0,6.84,1.48v1.44H999v-1.44a20.29,20.29,0,0,0,5.88-1,10.94,10.94,0,0,0,3.93-2.62,10.34,10.34,0,0,0,2.7-5.08,48.73,48.73,0,0,0,.69-9.57v-46.32a48.66,48.66,0,0,0-.69-9.57,10.33,10.33,0,0,0-2.7-5.09,9.77,9.77,0,0,0-4-2.63,20.31,20.31,0,0,0-5.84-1v-1.44Z"/><path class="cls-4" d="M1061.12,1029.81v54.69a45.16,45.16,0,0,0,.73,9.57,10.7,10.7,0,0,0,2.66,5.08,10.43,10.43,0,0,0,4,2.64,20,20,0,0,0,5.82,1v1.44h-29v-1.44a20.16,20.16,0,0,0,5.82-1,10.43,10.43,0,0,0,4-2.64,10.56,10.56,0,0,0,2.66-5.13,44.88,44.88,0,0,0,.73-9.52v-46.39a44.55,44.55,0,0,0-.73-9.46,10.56,10.56,0,0,0-2.66-5.13,9.92,9.92,0,0,0-3.93-2.63,20.29,20.29,0,0,0-5.88-1v-1.44h24.2l51,65.12v-45.38a44.44,44.44,0,0,0-.73-9.57,10.6,10.6,0,0,0-2.66-5.09,10.41,10.41,0,0,0-4-2.63,20,20,0,0,0-5.81-1v-1.44h29v1.44q-6.27,0-9.8,3.64a10.56,10.56,0,0,0-2.66,5.13,43.83,43.83,0,0,0-.73,9.46v66.13h-2.83l-59.2-74.43Z"/><path class="cls-4" d="M1221.26,1018.44l.75,27.33-1.43.13q-4.35-14-11.14-20.77a22.24,22.24,0,0,0-16.39-6.82,25.51,25.51,0,0,0-12.85,3.05,31.35,31.35,0,0,0-10,9.91q-9.44,14-9.42,32a57.16,57.16,0,0,0,2.25,16.24,43.58,43.58,0,0,0,6.61,13.5q8.43,11.3,20.55,11.31a20.5,20.5,0,0,0,9-2,18.48,18.48,0,0,0,6.91-5.54,18.72,18.72,0,0,0,3.71-11.63c0-4.14-1.11-7.14-3.37-9s-5.94-2.77-11.08-2.77V1072h40.09v1.44a26.71,26.71,0,0,0-7.77,1.54,6.53,6.53,0,0,0-3.28,3.54c-.79,1.85-1.2,5.52-1.2,11,0,1.52.09,3.86.26,7.06l.13,1.43a12.3,12.3,0,0,0-3.52-.88,6.85,6.85,0,0,0-3.52,1.44,42.36,42.36,0,0,1-12.7,5.78,56.89,56.89,0,0,1-15.28,2,50.79,50.79,0,0,1-20-3.78,35.6,35.6,0,0,1-14.42-10.81,38,38,0,0,1-6.37-12.55,52.89,52.89,0,0,1-2.23-15.47,54,54,0,0,1,4-20.92,41.68,41.68,0,0,1,11.33-16,43.19,43.19,0,0,1,13.75-7.85,48.71,48.71,0,0,1,16.46-2.77,43.88,43.88,0,0,1,9.33.94,49.36,49.36,0,0,1,9.14,3.07l3.71,1.7a6.63,6.63,0,0,0,2.51.56q2.52,0,3.84-4.08Z"/><path class="cls-4" d="M1242.37,1104.06l.2-26,1.43,0q2.64,9.95,6.29,15.67,6.86,10.57,17.23,10.57a15.93,15.93,0,0,0,12-4.85,16.8,16.8,0,0,0,4.72-12.27,22.2,22.2,0,0,0-1-6.52,19.16,19.16,0,0,0-2.82-5.73,20.39,20.39,0,0,0-5.12-4.72,91.83,91.83,0,0,0-10.09-5.73,98.24,98.24,0,0,1-9.14-5.1,26.53,26.53,0,0,1-5.12-4.21,20.56,20.56,0,0,1-5.41-14.4,25.3,25.3,0,0,1,2.1-10.08,24.73,24.73,0,0,1,5.88-8.3,22.48,22.48,0,0,1,15.77-6.16,22.92,22.92,0,0,1,5.47.6,44,44,0,0,1,6.72,2.36c2.1.84,3.51,1.38,4.29,1.59a6.86,6.86,0,0,0,2,.34c1.48,0,2.47-1,3-3.19h1.44l.45,25h-1.44q-1.69-6-2.91-9.14a35.62,35.62,0,0,0-2.92-5.9,22.47,22.47,0,0,0-6.8-7.25,15.59,15.59,0,0,0-8.54-2.36c-4.68,0-8.39,1.58-11.12,4.78a15.2,15.2,0,0,0-2.68,4.59,15.36,15.36,0,0,0-1,5.28q0,10.51,13.51,16.93l8.86,4.29q10.24,4.83,14.76,10.68a23.92,23.92,0,0,1,5.15,15.24,27.33,27.33,0,0,1-2.31,11.07,24.75,24.75,0,0,1-9.83,11.35,28.93,28.93,0,0,1-15.4,4,39.56,39.56,0,0,1-15.6-3.2c-2.6-1.14-4.14-1.78-4.64-2a5.34,5.34,0,0,0-1.71-.26,4.15,4.15,0,0,0-4.14,3Z"/><path class="cls-3" d="M655.1,658a82.52,82.52,0,0,0,15.28-13.61,85.1,85.1,0,0,0,11.42-15.94,40.94,40.94,0,0,0,2.79-6.72,23.58,23.58,0,0,0,1.25-7,7.9,7.9,0,0,0-2-5.47c-1.36-1.55-3.69-2.31-7-2.31a12.64,12.64,0,0,0-7.89,2.49,56,56,0,0,0-5.72,5,102.84,102.84,0,0,0-8,8.72,63,63,0,0,0-7,10.36,64.27,64.27,0,0,0-5,11.93c-1.14,3.8-1.34,7-.64,9.51s2.7,3.83,6,3.83a22.63,22.63,0,0,0,3.31-.22,21.24,21.24,0,0,0,3.21-.66Zm-7.46,7.84c-1.18.27-2.25.51-3.27.66a22.8,22.8,0,0,1-2.64.21c-3.67,0-6.43-1.15-8.26-3.46s-2.44-5.68-1.93-10,2.31-9.42,5.33-15.07c2.87-5.37,7.54-11.18,14-17.37A114,114,0,0,1,671,605.23c6.9-4.14,12.46-6.23,16.62-6.23a8,8,0,0,1,6.27,3c1.67,2,2.44,4.86,2.26,8.68s-1.73,8.48-4.68,14a78.39,78.39,0,0,1-7.1,10.41,114,114,0,0,1-14.13,14.58,147.66,147.66,0,0,1-22.62,16.23Z"/><path class="cls-3" d="M757.08,601.16l-4.14,5.25h-20l-22.23,32.84q-11.43,16.9-20.1,27.79a168.32,168.32,0,0,1-17.77,19.14A136.21,136.21,0,0,1,653.1,701q-20,12.43-35.58,12.45c-5.56,0-7.58-1.46-6-4.37,1.77-3.31,5.15-5,10.14-5,.54,0,2,.06,4.45.18s3.83.18,4.25.18a40.61,40.61,0,0,0,22.93-7.17,91.32,91.32,0,0,0,20.09-18.77q9.39-11.62,22-30.37l28.62-41.92-13.27-.18a37.6,37.6,0,0,1,3.31-4.38l13.45-.33c2.89-4.22,5.65-8,8.32-11.33a104.65,104.65,0,0,1,10.48-11.12,101.22,101.22,0,0,1,15.12-11.48,64.63,64.63,0,0,1,14.2-6.81,38,38,0,0,1,11-2.09c2,0,3.39.42,4.1,1.24s.7,2,0,3.32c-1.86,3.49-6.12,5.25-12.77,5.25l-3.91-.18a24.87,24.87,0,0,0-9.42,1.67,26.8,26.8,0,0,0-8.19,5.44,74.51,74.51,0,0,0-8.41,9.56q-4.4,5.84-11.51,16.35Z"/><path class="cls-3" d="M1128,994.84l.6-80.24,4.44-.06q8.16,30.72,19.44,48.4,21.18,32.73,53.25,32.7,22.38,0,36.94-15t14.59-37.93a68,68,0,0,0-3.18-20.16,59.85,59.85,0,0,0-8.69-17.71c-3.72-5.11-9-10-15.85-14.59s-17.18-10.61-31.17-17.71c-12.27-6.23-21.75-11.47-28.25-15.78a81.73,81.73,0,0,1-15.85-13q-16.71-18.3-16.71-44.5A78,78,0,0,1,1144,768.1a76.35,76.35,0,0,1,18.17-25.66,69.52,69.52,0,0,1,48.75-19,71.41,71.41,0,0,1,16.91,1.86,135.91,135.91,0,0,1,20.76,7.3c6.5,2.58,10.87,4.24,13.26,4.91a20.74,20.74,0,0,0,6.17,1.06c4.57,0,7.63-3.25,9.15-9.89h4.44l1.4,77.13h-4.45q-5.27-18.49-9-28.25a108.67,108.67,0,0,0-9-18.24c-6.36-10.08-13.33-17.57-21-22.41a48.26,48.26,0,0,0-26.39-7.3q-21.69,0-34.36,14.79a46.56,46.56,0,0,0-8.29,14.19,47.45,47.45,0,0,0-3,16.32q0,32.52,41.78,52.32l27.39,13.27q31.63,14.91,45.62,33c10.62,13.53,15.92,29.18,15.92,47.09a84.3,84.3,0,0,1-7.16,34.22c-6.77,15.12-16.84,26.85-30.37,35.08s-29.32,12.33-47.62,12.33a121.94,121.94,0,0,1-48.21-9.88c-8-3.51-12.8-5.5-14.33-6a16.48,16.48,0,0,0-5.3-.8c-6.17,0-10.48,3.12-12.8,9.35Z"/><path class="cls-4" d="M131.32,1020.37q-4,0-8.5.26c-6.44.32-11.26,1.13-14.42,2.44a16.89,16.89,0,0,0-7.83,6.74,34.74,34.74,0,0,0-4.33,11.93l-1.44-.11,1.11-23.19H181l1.12,23.19-1.44.11c-1.14-5.82-2.9-10.23-5.32-13.22s-5.9-5.15-10.51-6.45c-3.91-1.14-10.49-1.7-19.81-1.7v64.13a45.14,45.14,0,0,0,.73,9.52,10.66,10.66,0,0,0,2.67,5.13,10.32,10.32,0,0,0,4,2.64,20.1,20.1,0,0,0,5.82,1v1.44H118.06v-1.44a20.16,20.16,0,0,0,5.87-1,10.39,10.39,0,0,0,4-2.64,10.79,10.79,0,0,0,2.66-5.08,45.29,45.29,0,0,0,.73-9.57v-64.13Z"/><path class="cls-3" d="M298.14,732.21l3.25,64.13-4.45.14c-1.65-10.88-4.44-19.9-8.35-27a58.21,58.21,0,0,0-16.91-18.83A55.68,55.68,0,0,0,250.12,741c-8.29-1.92-19.3-2.85-33-2.85H172.6V854.84h11.67c11.8,0,20.69-.8,26.66-2.32a30.22,30.22,0,0,0,14.52-8.36,35.07,35.07,0,0,0,8.09-13.33c1.73-5.11,3.19-12.67,4.38-22.62l4.45.2-.8,104.05h-4.44c-1.2-9.94-2.86-18-5.18-24.07a44.54,44.54,0,0,0-9.41-15.52,34,34,0,0,0-15.13-9.15c-6.23-1.92-14.12-2.92-23.74-2.92H172.6v44.5q0,26.67,1.39,38.8a63.64,63.64,0,0,0,5.24,20.36A42,42,0,0,0,199.32,985q13.53,6.46,35.68,6.5c15.52,0,28.59-2,39.06-5.9a59,59,0,0,0,25.67-18.37,72.21,72.21,0,0,0,11.34-19.1c2.92-7.1,5.64-16.52,8.09-28.19l4.44.2-2.52,77.33H89.3V993c7.36-.39,13.4-1.39,18-3.11a32.39,32.39,0,0,0,12.34-8.16,32.73,32.73,0,0,0,8.22-15.85c1.53-6.37,2.26-16.18,2.26-29.44V793.23c0-13.27-.73-23.08-2.26-29.45a32.73,32.73,0,0,0-8.22-15.85,30.64,30.64,0,0,0-12.14-8.15c-4.57-1.73-10.67-2.73-18.17-3.12v-4.45Z"/></g></g></svg>