<svg xmlns="http://www.w3.org/2000/svg" viewBox="0 0 1387.53 1387.53"><defs><style>.cls-1{fill:#c17214;}.cls-2{fill:#fff;}</style></defs><g id="Laag_2" data-name="Laag 2"><g id="Laag_1-2" data-name="Laag 1"><rect class="cls-1" width="1387.53" height="1387.53"/><path class="cls-2" d="M1238.57,565.3V822.23H1306a36.68,36.68,0,0,0,36.65-36.65V601.94A36.62,36.62,0,0,0,1306,565.3Zm34.12,224.49V597.73H1298a10.54,10.54,0,0,1,10.53,10.53v171A10.53,10.53,0,0,1,1298,789.79ZM668.7,565.3V822.23h84.24V789.79H702.82V708.08h50.12V675.65H702.82V597.73h50.12V565.3Zm249.77,0h34.11V822.23H918.47Zm-122.57,0V822.23H830V708.08h50.12V675.65H830V597.73h50.12V565.3Zm205.12,0V822.23h84.24V789.79h-50.12V708.08h50.12V675.65h-50.12V597.73h50.12V565.3Zm-442.67,0V822.23H643V789.79H592.47V565.3Zm569.87,0V822.23h84.66V789.79h-50.54V565.3ZM341,597.73v224.5h34.11V597.73h33.28V565.3H308.16v32.43Zm123.4,0v224.5h34.12V597.73h33.28V565.3H431.57v32.43ZM171.28,822.23h34.58l9-64.45h41l9.1,64.45h34.58L256.65,565.3H214.2Zm48.1-96,16-113.76,16.05,113.76ZM44.92,789.79v32.44H114a34.53,34.53,0,0,0,34.54-34.54v-70c0-15.71-15.5-26-17.44-26h-.37c3.58,0,16.55-9.27,16.55-27.38V598.15a32.84,32.84,0,0,0-32.85-32.85H44.92Zm34.12,0V708.08h24.85a10.54,10.54,0,0,1,10.53,10.53v60.65a10.53,10.53,0,0,1-10.53,10.53Zm0-113.3V597.73h23.58a10.54,10.54,0,0,1,10.53,10.53V666a10.53,10.53,0,0,1-10.53,10.53Z"/></g></g></svg>