<svg xmlns="http://www.w3.org/2000/svg" viewBox="0 0 1387.53 1387.53"><defs><style>.cls-1{fill:#356436;}.cls-2{fill:#ddd;}</style></defs><g id="Laag_2" data-name="Laag 2"><g id="Laag_1-2" data-name="Laag 1"><rect class="cls-1" width="1387.53" height="1387.53"/><path class="cls-2" d="M77,539.1c22.76-11.1,49.4-11.45,73.8-6.45,18.49,4.44,38.11,14.91,45.09,33.71,7,21.66,5.47,44.77,5.5,67.19-22.17-.09-44.34,0-66.47,0-.47-18.61,1-37.32-.91-55.87.4-12.83-22.33-12.74-22,.09-2.39,29.18-.57,58.55-1.13,87.82.53,18.68-1.36,37.61,1.6,56.13,1.82,7.42,11.13,8,17,5.47,4.53-3.24,4.62-9.18,5.1-14.18.72-13.9.15-27.8.34-41.7,22.2-.06,44.36,0,66.56,0-.66,21.1,1.23,43.55-7.64,63.27-14.71,24.36-45.4,33.51-72.44,32.67-23.84-.22-51.13-5.72-65.94-26.26-10.6-16.6-10.22-37.29-11.07-56.28.16-33.68-1.13-67.42,1.2-101C46.55,564.28,59.82,547.21,77,539.1Zm160.17-5.32q48.3-.66,96.63,0C346,610.06,359.1,686.22,371.55,762.47c-20.72-.07-41.44,0-62.16-.07-1.83-14.27-3.18-28.61-5.41-42.85-7.4.12-14.81.12-22.2.09,1.32-12.77,2.76-25.53,4.15-38.3,4.55,0,9.08,0,13.64,0-4.15-32.67-7.26-65.5-12.26-98-6.48,59.8-14.28,119.45-21.38,179.2q-31.17,0-62.38,0c11.07-76.22,22.76-152.38,33.61-228.66Zm145.77-.22c22-.06,44.12,0,66.19,0q0,91.5,0,183c13.49.06,27,0,40.47,0,.06,15.31,0,30.59,0,45.91-35.56,0-71.13,0-106.69,0q-.09-114.42,0-228.88Zm122.44,0c22.1-.06,44.24,0,66.38,0q.09,91.5,0,183c13.36.06,26.72,0,40.09,0q0,23,0,45.91H505.4q-.09-114.42,0-228.88Zm188.85,0c29.24-.22,58.51,0,87.72,1.29,15.38,1.1,31.47,2.17,45.19,9.94,12.35,7.42,19.93,21.47,20,35.84,2,39.81.86,79.74,1,119.58-.78,16.45,1,35.57-11,48.68-13.27,12.13-32.32,12.73-49.33,13.42-31.19.35-62.42,0-93.64.13q0-114.42,0-228.88m66.37,39.37q0,75.38,0,150.71c6.32-1.39,15.95-.1,18.74-7.58,3.9-16.51,1.82-33.74,2.36-50.59-.54-27.55,1.17-55.22-1-82.73C779.81,572.84,767.92,573.24,760.59,572.93Zm104.14-39.37c22-.06,44,0,66,0q0,83.39,0,166.78c.13,7.35,0,14.77,1.36,22,1,8.33,15.69,7.95,16.32-.41,1.47-7.17,1.32-14.53,1.41-21.79-.06-55.53,0-111.06-.06-166.59,22-.09,44,0,66.06,0-.06,53.46.19,106.91-.13,160.33-.69,14.72.95,30.91-7.79,43.71C997.52,755,977.3,763.88,957.74,766c-24.77,2.83-51.72-.09-72.47-15-13-9.28-19.87-25.25-19.72-41-1.57-58.76-.47-117.56-.82-176.36Zm165.36,0h145.36c0,15.32,0,30.6,0,45.91-13.14,0-26.28,0-39.39,0v183c-22.21,0-44.4,0-66.6,0V579.47c-13.08,0-26.16-.06-39.24,0-.28-15.31-.13-30.62-.16-45.94Zm157.28,0c20.37.25,40.75-.53,61.13.41,12.51,41.1,26.19,81.82,39.14,122.79,3,10.12,7.89,20,7.58,30.81-.16,25.38,0,50.75-.09,76.12q-30.62.06-61.2,0c0-24.33-.09-48.67.07-73a50.23,50.23,0,0,0-2-16.3c-15-46.88-29.72-93.85-44.62-140.8Zm95.24,0c20.25-.06,40.5,0,60.75,0-14.28,43.33-28.36,86.72-42.64,130.05-9.06-28.93-19.21-57.57-27.42-86.72C1275.22,562.24,1279.66,548,1282.61,533.56Z"/><path class="cls-2" d="M604.35,588.43c11.64-5.12,29.06-.16,31,13.87a306.9,306.9,0,0,1-.12,51c-3.52,19.46-36.07,20.37-41.19,1.51-2.52-15.13-1.1-30.69-1.17-46-.37-8.27,3.49-17.17,11.51-20.41m7.93,10.82c-1.39,18.71-.82,37.51-.35,56.25l4.43-1.45c2-17.26,1.39-35,.41-52.29-1.1-.63-3.36-1.88-4.49-2.51Zm29.93-11c10,0,20-.06,30,0,0,5.19-.06,10.41-.06,15.63L660,604c0,5,0,10,0,15,3.61,0,7.26.07,10.94.13,0,4.78,0,9.56,0,14.34l-10.94.09c0,11.1,0,22.17,0,33.27-6,0-11.86,0-17.77.07q0-39.35,0-78.62Z"/><path class="cls-2" d="M1319,742a14.45,14.45,0,0,1,10.54,4,12.81,12.81,0,0,1,4.14,9.5,12.68,12.68,0,0,1-4.2,9.55,14.87,14.87,0,0,1-20.22,0,13,13,0,0,1-2-16.79,13.07,13.07,0,0,1,5.54-4.8A15.07,15.07,0,0,1,1319,742Zm.71,2.63a11.52,11.52,0,0,0-8.53,3.29,10.51,10.51,0,0,0-3.27,7.61,10.18,10.18,0,0,0,3.39,7.68,11.88,11.88,0,0,0,16.22,0,10.44,10.44,0,0,0,1.68-13.38,10.8,10.8,0,0,0-4.38-3.9,11.72,11.72,0,0,0-5.11-1.3Zm-6.62,18.12V748.38h7.19a5.46,5.46,0,0,1,3.88,1.17,3.87,3.87,0,0,1,1.21,2.89,3.58,3.58,0,0,1-1,2.67,5.66,5.66,0,0,1-3.07,1.36,3.85,3.85,0,0,1,1.49.91,18.13,18.13,0,0,1,1.74,2.48l1.77,2.88h-3.78l-1.27-2.31a10.7,10.7,0,0,0-2-2.82,3.36,3.36,0,0,0-2.27-.75h-.8v5.88h-3.06Zm3.06-8.16h2.5a5.64,5.64,0,0,0,2.68-.46,1.65,1.65,0,0,0,.79-1.53,1.56,1.56,0,0,0-.78-1.43,4.62,4.62,0,0,0-2.37-.48h-2.82v3.9Z"/></g></g></svg>