<svg xmlns="http://www.w3.org/2000/svg" viewBox="0 0 1387.53 1387.53"><defs><style>.cls-1{fill:#faea26;}.cls-2{fill:#010101;}</style></defs><g id="Laag_2" data-name="Laag 2"><g id="Laag_1-2" data-name="Laag 1"><rect class="cls-1" width="1387.53" height="1387.53"/><path class="cls-2" d="M92.54,534.9c.37,1.48,0,1.48-1.48,1.48H89.57V753.12h3a14,14,0,0,1,3,.37l.74.37,1.12.74c.37.75.74.75,1.85.38a2.79,2.79,0,0,1,1.86.37c.37.37,5.19.74,20.78,1.11,11.14.37,20.41.74,20.41.74s-8.9.37-20.41.37c-17.81,0-20.41,0-21.15.75a3.16,3.16,0,0,1-2.23.74,12.9,12.9,0,0,0-5.19,2.22l-3.72,2.23V768h2.6c1.86,0,2.6.38,2.23.75,0,.37,0,.74.74.74a1,1,0,0,1,1.11,1.11,1,1,0,0,0,1.12,1.12c.37,0,1.11.37,1.11.74,0,1.11,3.34,1.11,3.71-.37s1.86-1.12,3.71.37l1.49,1.11H91.8L90.69,775c-1.12,1.48-1.12,1.85-1.12,19.29V812.5h32.29c17.82,0,32.66,0,33.4-.37,1.12-.37,1.12-.74,1.12-4.08s-.37-4.09-1.12-5.57c-1.48-1.86-1.48-2.23-.74-2.23.37,0,.74.37.74,1.12.37,1.11,1.49,1.48,2.6.37.37-.37.74,0,1.11.74.75,1.48,3.34,1.85,3.72.37.37-.37.37-.74.74-.74h1.85l1.12-.37v-98h31.91c21.16,0,32.29-.37,33-.37l.75-1.11c0-.38.37-.75,1.11-.75,1.11,0,2.23-1.48,2.23-3.34,0-.37.37-1.11.74-1.11.37-.37.74-.74.37-2.23v-.74c.37,1.49,1.48,1.11,1.48-.37,0-1.11-.37-1.11-1.85-1.11s-1.86-.37-2.23-1.49a5.5,5.5,0,0,1-.37-2.22l-.37-1.49c-.74-.37-.74-.74-.37-.74.37-.37.74-1.49.74-4.45s.37-4.09.74-4.46l.74-1.11c0-.37.38-.74,1.12-.74s1.11-.38,1.11-1.86c0-1.86,0-1.86-1.48-2.23s-1.86-.37-2.23-2.22c-.37-1.12-.37-1.12,1.11-1.12a2.79,2.79,0,0,1,1.86.75c.37.74,1.85.74,1.85,0l.75-.75c.74,0,.74-1.48.74-10.39,0-8.16,0-10.39-.74-11.13a8.89,8.89,0,0,1-1.12-2.6c-.37-1.48-.74-2.23-1.48-2.23-.37,0-.74.37-.37.75s.37,1.48.37,2.59c0,1.49,0,1.49-.74,1.49-.37,0-.75-.74-1.12-1.12,0-.74-.37-1.11-1.48-1.11a1,1,0,0,1-1.11-1.11v-.37H166v-8.54c0-5.94-.38-8.53-.75-8.91v-1.11c.37-.37.75-2.23.75-4.45,0-3.34,0-3.71-.75-4.08-1.11-.38-1.48-4.83-.37-4.83.37,0,.74-.74.74-1.48v-1.49l-2.59.37c-1.86,0-3,0-3.71-.37-.38-.37-.38-.37.74-.37,1.11.37,1.48,0,1.85-.74,0-.74.75-1.12,1.49-1.49,1.11-.37,1.11-.74,1.11-2.22a4.51,4.51,0,0,0-.37-1.86c-.37,0-.37-.37-.37-1.11,0-1.12,0-1.12-2.23-.37-1.48.74-1.85.74-1.85,0l.74-1.12c.37,0,.74-.74.74-1.11a3.73,3.73,0,0,1,.37-1.11c.37,0,.37-.75.37-1.86-.37-1.85-.74-2.23-1.48-1.11l-1.11.37c-.38,0-1.12.74-1.86,3-1.11,3-3,5.56-5.57,6.68-.74.37-1.11.74-.74,1.48,0,.37-.37.37-.74-.37-1.49-1.48-1.12-1.85.37-1.48,1.11.37,1.86,0,3.71-1.86,1.86-1.48,2.23-2.6,2.6-4.82.37-1.86.37-3,0-3.34-1.49-2.23-2.23-4.09-1.49-3.71.75.74,1.86.74,1.86,0l.74-.75c.37,0,.74.37.37,1.12a6.3,6.3,0,0,0,.37,2.59c.75,1.49.75,1.49.75.38a1,1,0,0,1,1.11-1.12c.74,0,1.11-.37,1.48-1.11.38-1.11.38-1.11,1.49-.37.74.37,1.11,1.48,1.48,2.22a1.71,1.71,0,0,0,1.12,1.86c.74,0,1.11.37,1.11.74l.74.37c1.49,0,2.6.37,2.23,1.12s7.05.74,52.7.74h53.07V533.41H186.44c-59.75,0-90.19,0-90.19.38l-.74.37-.74-.37c0-.38-.74-.38-1.48-.38C92.17,533.41,92.17,533.79,92.54,534.9Zm58.27,11.87c3,3.35,3.34,3.72,2.6,4.83s-.74,1.11-2.23.37a2.3,2.3,0,0,0-2.6.37c-1.11.74-1.48.74-2.22,0s-.75-.74-.38-1.11c.75-.37.75-2.23,0-2.23-.37,0-.74.37-1.11,1.12-.37,1.11-.74,1.11-1.48.74-1.12-.37-1.12-.74-1.12-3.34a28.67,28.67,0,0,1,.37-3.34c.38-.75,2.6,1.11,3.34,2.6s1.49,1.85,1.86.74-.74-3.34-1.48-3.34c-.38,0-.75-.37-.75-1.12C146,542,147.1,542.69,150.81,546.77Z"/><path class="cls-2" d="M347.88,534.53a1.5,1.5,0,0,1-1.49.74c-.74,0-5.19,7.42-18.93,32.66l-17.81,32.66.37,2.22c.37,2.23.37,2.23,2.23,2.23s1.48,0-1.49,1.49c-1.85.74-3.71,1.48-4.45,1.85s-1.11.74-1.11,2.6,0,2.23-1.49,3-3,3.34-10,16c-4.45,8.53-8.53,15.21-8.53,15.58,0,0,1.48.37,3.34.75a19,19,0,0,0,3.34.37,11.82,11.82,0,0,1-1.86,2.6,10.35,10.35,0,0,0-1.85,3l-.38,1.49a1.47,1.47,0,0,0,.75,1.48c1.11.37,1.48.37,3.34-1.85a27.83,27.83,0,0,0,2.59-2.23,9.19,9.19,0,0,1,1.86,3c0,.37-.74,0-1.48-.37-1.49-.37-1.49-.37-3.72,1.85-1.85,2.23-2.22,2.6-1.85,4.46l.37,1.85-3,1.12-3,1.48,1.86-1.48a7.7,7.7,0,0,0,1.85-1.86c0-.37-.74-.37-1.48-.37-1.49,0-1.49,0-1.86-2.6-.37-4.08-.74-4.45-2.22-4.08-1.12,0-2.6,2.6-11.88,19.67-10,18.18-10.76,19.67-11.13,23-.75,4.45-1.86,6.31-3.71,6.31-1.12,0-2.23,1.48-18.56,31.17l-17.07,31.18,1.85,3.34c.75,1.85,1.49,3.34,1.49,3.34a27.08,27.08,0,0,1-2.23-2.6c-1.11-1.49-1.86-2.6-2.23-2.23s-5.56,9.65-11.5,21.16C200.54,799.88,195,809.9,194.23,811l-1.11,2.23h19.3l1.48-3c.74-1.48,1.48-2.6,1.48-2.22s.75.74,1.12,1.11a.8.8,0,0,1,.74.74c0,.37-.37,1.11,0,1.86.37,1.11.37,1.48,1.86,1.48,3.34,0,4.08-1.85,2.22-3.71l-1.11-1.11,1.11-1.12c.75-.74,1.49-1.48,1.49-1.85s.74-.37,1.48-.37a3.83,3.83,0,0,1,3,1.48c2.23,2.6,3.34,4.08,3,5.57l-.37,1.11h40.08l9.65-17.44c5.19-9.65,9.65-17.82,10-18.19a.8.8,0,0,0-.74-.74c-2.6,0-3.34-.37-3.34-1.85,0-.75,0-1.12.37-.75,0,.37,1.11.75,2.6.75,3,0,2.59.37,5.93-5.94l2.23-4.08-1.48-.75a9.38,9.38,0,0,0-3.71-.74c-1.86,0-1.86,0-.75-.37s1.12-.37.37-.74a2.2,2.2,0,0,1-.74-1.86c0-2.23,1.49-1.85,3,.37.74,1.49,1.11,1.49,2.23,1.49,2.6-.75,3.34-1.12,4.08-3.34l.74-2.23-3.34-.37c-1.85,0-10.39-.74-18.93-1.11-28.94-1.86-28.94-1.86-1.11-1.86h26l1.86-3.34,1.85-3.34h63.83v4.45c0,4.09,0,4.46,1.12,5.57l1.11,1.11-1.11,1.12-1.12,1.11v53.44H447v-47.5c0-26.35,0-63.09.37-82l.37-34.51-1.86-3.34L444,642.9H426.18l-2.59,1.48c-2.23,1.48-3,2.23-5.94,7a58.88,58.88,0,0,1-5.2,7.42l-1.85,1.86.37,3.34.37,3.34-1.12-3.34c-2.59-6.31-3-7-5.56-7.79s-5.94-.38-6.68.74a23.76,23.76,0,0,1-3.71,2.22c-3.34,1.49-3.34,1.86-3.34,3.35s-.37,1.85-2.23,3a8.3,8.3,0,0,1-3.34,1.49c-1.11,0-2.23.37-4.08,2.6l-2.6,2.59.74,3.34a57.47,57.47,0,0,1,.74,8.91c0,5.2,0,5.57-1.11,5.57a2.88,2.88,0,0,0-1.86.74c-.74.37-.74,0-.74-1.11a2.79,2.79,0,0,1,1.49-2.6c1.48-1.11,1.48-1.11,1.48-4.83,0-3.34,0-3.71-1.48-5.93-1.49-1.86-1.49-2.23-2.6-1.86s-1.49.74-2.23,4.08c-.74,3-1.11,3.71-1.48,2.6a5.52,5.52,0,0,1-.37-2.23c0-1.11,0-1.11-3-.74-2.23.37-3.34.74-4.08,1.49s-1.86,1.11-3.72,1.48c-2.59.37-2.59.37-3,1.86s-.75,1.85-3.72,2.59a6.16,6.16,0,0,0-2.22,1.12c-.37,1.85-1.12,2.22-3,2.6l-1.86.37v8.16l-.74-2.6c-.74-2.22-1.11-3-2.23-3.34-1.48-.37-1.85-.37-1.85,1.12,0,.74-.37.74-2.23.74-2.6,0-3.34.74-4.08,3s-2.23,2.6-6.31,1.48l-3.34-.74,3.34-.74c4.45-1.12,5.2-1.49,7.42-3.71,1.12-1.12,2.23-2.23,2.6-2.23,1.11-.37,4.45-5.2,4.82-7.42.38-1.49.38-1.49.75-.74.37,1.48,3.34,1.48,4.45.37a4.22,4.22,0,0,1,2.23-1.12c.74-.37,1.85-.74,2.22-1.85.75-1.12.75-1.49.38-3-.38-.74-1.12-2.23-1.49-3a10.82,10.82,0,0,1-2.23-5.94c0-.74-.37-1.48-1.48-2.6-1.11-.74-2.23-2.59-3-4.82-1.11-3-1.48-3.34-2.6-3.34a1.71,1.71,0,0,1-1.85-1.11,1.64,1.64,0,0,1,.37-1.86,11.51,11.51,0,0,1,2.22-1.48c1.12-1.12,1.49-1.49,1.12-2.6-.37-1.49-.74-1.49,1.48-2.23,2.6-1.11,3-3,2.6-11.87l-1.86-7.8-1.85-1.48a13.45,13.45,0,0,1-1.86-1.49,6.27,6.27,0,0,1,1.12-1.48c1.48-1.49,1.48-3,.37-3.34-.74-.37-1.12-.74-.74-1.86,0-.74.37-1.85.37-2.22s.37-.75,1.11-.75,1.11-.37,1.86-2.22c.37-1.12.74-1.86.74-1.12.37.75,1.11,1.12,4.08.38,1.86-.38,1.86-.38,1.86-2.23,0-1.49,0-1.86.74-1.86s.74-.37.74-1.85a3.14,3.14,0,0,1,.74-2.23c1.12-.37,1.12-.37,1.12,1.48,0,1.49.37,1.86,1.11,1.86,1.11.37,1.48,0,2.23-3,.37-1.48.37-1.85.37-.74.37,3,4.45-.37,4.08-3.34a2.85,2.85,0,0,1,.74-1.86c.74-.37,1.12-.37,2.23.37,1.48.75,1.48.75,1.48-.37,0-.74.37-1.11,1.49-1.48,3.34-.74,4.08-3,.74-4.45-1.86-.75-1.86-.75-1.48-2.23.37-1.11.74-1.49,1.48-1.49,1.11,0,1.48,0,1.48,1.12,0,1.48,0,1.48,2.6,1.11l2.6-.37-.74,1.48a7,7,0,0,0-.74,2.6c0,1.12,0,1.12,1.48.74,1.86-.37,2.23-.74,2.23-1.48,0-1.11,2.22-2.23,4.45-2.23,1.86,0,1.86,0,3.71-2.59s1.86-2.6,4.46-3h2.59l4.46,3.71c4.45,3.71,4.82,3.71,6.31,3.71,1.48-.37,1.85-.37,1.85,1.48,0,2.23,1.86,4.46,4.08,4.46h1.86l-.74-1.86c-.75-1.48-.37-2.6.37-1.11.37.37.74.37,1.48,0s7.43-.37,15.59-.37h14.47v-2.23c0-3.34-.74-6.31-1.11-6.31s-.37-.37-.74-.74a3.28,3.28,0,0,0-1.49-1.86c-1.48-.74-2.22-2.59-1.11-2.59.74,0,3.34,1.48,3.34,1.85l.37.37c.37,0,.37-11.87.37-26.35V533H383.5l.38,2.23c0,1.48.37,3,.37,3.71s-.75-.37-1.49-2.23l-1.48-3.34H367.55c-7.43,0-13.36.38-12.62.38,1.48.37,1.48.74-.74,2.22-1.49,1.12-1.86,1.12-2.23.74s-.37-.74,0-1.48c.37-.37.74-1.11,1.11-1.48s-.74-.38-2.22-.38C349,533.41,348.25,533.79,347.88,534.53Z"/><path class="cls-2" d="M460,547.15c0,12.24.37,14.1,1.11,15.58.74,1.86.74,3.71-.37,4.46-.37.37-.74,5.93-.74,17.07V601l1.11.74c1.11.74,1.11,1.11,1.11,3-.37,1.86-.37,2.23,2.23,3.34a10.19,10.19,0,0,0,8.53,1.48c2.23-.74,2.6-.74,2.6.38.37,1.85,27.09,5.93,27.84,4.45h1.11c.74.74,8.91,1.48,9.65,1.11h1.11c.37.37,2.23.75,4.46.75,3.71.37,1.85.74-14.11.74-15.58,0-19.29.37-24.49,1.11-3.34.37-6.31,1.11-6.68,1.11s-.37,1.12-.37,1.86v1.48l4.45.75L483,624l1.12-1.49,1.11-1.48v1.48c0,1.49,0,1.49,1.86,1.49a5.13,5.13,0,0,0,3.71-1.86l1.85-1.48-.74,1.85c-.74,1.86-.74,1.86.37,1.86.75,0,3.34.37,5.94.74a40.75,40.75,0,0,0,4.45.37,32.86,32.86,0,0,1-4.82.37c-4.45.38-4.45.38-3,.75s-.37.37-8.16.74h-10l-1.86,1.48a14.38,14.38,0,0,0-1.86,1.49s1.49.37,3.34.74l3.34.37H469.23l-1.85-2.23c-1.86-2.22-1.86-2.22-4.83-2.22h-3l.38,2.6c.37,2.59.74,3,1.85,3,1.86.38,1.49.75-.37,1.86-.74.37-1.86,1.11-1.86,1.11A6.55,6.55,0,0,0,460.7,637l1.11,1.48h17.07l-3.71.74c-1.85.38-3.71,1.12-4.08,1.12s0,.74.74,1.48c3.71,4.08,3.34,4.08-.74,1.12-2.6-1.86-3.34-2.23-8.17-2.6l-2.59-.37V812.87h25.6c22.27,0,25.61,0,26-.74s.74-.74,2.23-.37l1.85.37.38-2.6c.37-2.6,1.48-4.08,1.48-1.86,0,1.86.37,2.6,2.23,2.6a2.5,2.5,0,0,0,2.6-1.48c.74-1.12,1.48-1.86,2.59-1.86a4.27,4.27,0,0,0,2.6-1.85c.74-1.49,2.6-2.23,7-3.71l1.86-.38V689.66l18.93,28.2c10.39,15.59,28.57,43.42,40.82,61.61l22.27,33.4h39c21.16,0,39,0,39-.37,0,0-12.62-20.41-28.2-44.91S636.24,716,631,707.84s-9.65-15.58-10-16l-.37-1.11s2.6-1.48,5.57-3c18.18-9.28,32.66-25.61,37.85-42.68,5.2-16.7,5.2-37.11,0-53.44-2.59-8.16-8.53-19.3-13.36-26-2.6-3.71-7.79-8.9-8.53-8.9l-1.12-.75c0-.37-1.85-1.48-3.71-2.6L634,552H602.1l7.42-1.11c7.42-1.12,7.42-1.12,7.42-2.6,0-1.11.37-1.49,1.86-1.86a4.64,4.64,0,0,0,3-2.22,5.51,5.51,0,0,0,1.11-1.86,6.8,6.8,0,0,0-1.49-1.11c-1.48-.74-3-.74-13.36-.37-6.31.37-13,.37-14.47.37-2.23.37-2.23,0,.74-.37a41.68,41.68,0,0,1,6.31-.75c2.23-.37,2.6-.37,2.6-1.48s-.37-1.11-1.49-1.11c-1.85,0-2.22-.37-1.48-1.12s-.74-1.48-1.86-.74c-.74.37-1.11.37-1.48,0l-1.11-.74a14.54,14.54,0,0,1-2.23-.74c-2.23-1.12-3.34-.75-3.34.37s-.37,1.48-2.6,1.48c-1.11,0-1.85-.37-1.85-.74l.37-.74c.37,0,.74-.37,1.48-.74.74-.75.74-.75-1.48-.75s-2.6,0-2.23.75c.37,1.11-.74,1.48-2.23,1.11a.71.71,0,0,1-.37-1.11c.37-.75-.37-.75-10-.75H560.9l-.37,2.23c-.37,1.48-.37,1.86-.37.74,0-3,4.08-3-49.73-3H461.07Zm55.29,32.28c0,3,0,4.09-.74,4.83s-.74,1.11,0,2.23c.74,1.48,1.11,3.71.37,4.08s-1.48-1.12-1.11-1.86.37-.74-.37-.37-1.12.37-1.49,0c-.74-.74-.74-1.48,0-1.48,1.49,0,1.49-2.6.37-3.71s-1.11-1.86,0-1.12a1.7,1.7,0,0,0,1.86,0c1.11-.74,1.11-1.48-.74-3a5.57,5.57,0,0,1-1.49-2.22c.37-.75,2.23-1.86,3-1.49A38.83,38.83,0,0,1,515.25,579.43Zm-7.05,16.33c1.11,1.12,1.11,1.12,2.23,0,1.11-.74,1.48-.74,3-.37l1.48.37v4.46c0,3.34-.37,4.45-.74,4.82l-.74-.37a2.76,2.76,0,0,0-.75-1.48c-.74-.75-.74-.75-1.11,0a6.25,6.25,0,0,0,.74,1.85c1.49,1.49,1.49,2.6-.37,4.83-1.48,1.85-2.22,2.22-4.45.37-1.49-.75-1.86-1.49-1.86-3.34-.74-5.57,0-12.62,1.12-12.62C507.09,595,507.83,595.39,508.2,595.76ZM581.68,598c8.17,1.11,13,3.34,17.08,7.42,5.93,6.68,6.3,21.16,1.11,28.21-3,4.08-7.79,6.68-14.85,8.16-3,.74-7,.74-26,1.12l-22.27.37v-46h20.78C568.32,597.25,579.09,597.62,581.68,598Z"/><path class="cls-2" d="M788.4,534.16a142.58,142.58,0,0,0-58.27,21.89c-29.32,19.67-50.47,53.44-56.78,91.67-1.11,7.42-1.48,28.21-.37,37.11,2.6,23.75,10,43.8,23.75,65.32,11.14,17.44,25.24,31.92,39.71,41.57,11.51,7.42,30.81,15.21,47.88,18.55,14.1,3,18.18,3.34,36,3.34,14.1,0,15.95,0,17.07-.74.74-.37,1.48-1.11,1.48-1.48l1.12-.75.74-.74a2.22,2.22,0,0,1,.37-1.48c.37-.75,0-1.12-.74-1.12s-.75-.37.37-.74a8.07,8.07,0,0,0,1.85-1.48c.37-.37,1.12-1.12,1.49-1.12s1.11-.37,1.11-.74c0-1.11-2.6-1.11-4.45,0-2.23,1.11-2.23.37,0-1.11,1.11-.74,1.85-1.49,1.85-1.86l.75-.37c.74,0,.74-1.48,0-2.6-.38-.37-1.12-.37-2.23.37a9,9,0,0,1-3.34,1.49c-1.11,0-1.86.37-1.86.74s-.74.37-1.48.37c-1.49,0-3.71,1.49-3.71,2.23l-.74.37c-.75,0-.75-.37-.38-1.11a4,4,0,0,1,.75-1.86c.37-1.48-.75-1.11-3,1.11l-2.23,2.23.74-1.48c.75-1.49.75-1.49,0-1.49a2.81,2.81,0,0,1-1.48-.74,8.93,8.93,0,0,0-2.6-1.11c-1.11-.37-1.86-.37-1.11-.37s1.48-.38,1.48-.75a2.85,2.85,0,0,1,1.86-.74c.74,0,1.11.37,1.11.74,0,1.12,2.23.75,3.71-.74,1.12-1.11,1.86-1.48,4.46-1.85a18.1,18.1,0,0,0,5.19-1.12c1.86-.74,1.86-.74,1.86-3v-2.22l-2.6-.37c-1.49,0-4.08-.38-5.57-.38-2.6,0-2.6,0-2.6-.74s.38-1.11,1.86-1.11c3.34-.74,3.71-.74,3.71-2.6a3.41,3.41,0,0,1,2.6-4.08,9.26,9.26,0,0,0,2.6-1.49,5.26,5.26,0,0,1,2.22-.74l1.12-.74c.37-.37,1.11-.37,2.22-.37,1.86.37,2.23,0,3.34-1.49l1.12-1.48v-20l-19.3-.37c-20-.37-26.35-.75-37.11-3-10.4-2.23-27.1-14.48-36.75-27.46a85,85,0,0,1-5.93-9.65l-2.6-5.2a3.84,3.84,0,0,0-1.49-.37c-1.11-.37-1.48-.37-1.48,1.11,0,1.12-.37,1.49-.74,1.49l-1.12-.75c-.37-.74-.37-.74-1.11,0s-1.85.75-4.45.75c-2.23,0-2.6,0-1.12-.37,3.72-.38,4.46-.75,4.46-1.49a1,1,0,0,1,1.11-1.11c.37,0,1.11-.37,1.11-.74l.38-.75c.74,0,1.85-1.48,1.85-2.22s-.37-1.12-.74-1.12a3.73,3.73,0,0,0-1.11.37c-.38.38-3.72,1.12-3.72.75s.75-.75,1.86-1.12c1.48-.37,1.86-1.11,1.86-1.85s-.38-1.12-2.6-1.12c-1.49,0-2.23,0-1.49-.37,4.09-.74,4.46-.74,4.09-1.48,0-.37-.75-.74-1.12-.74-1.11,0-1.11,0,0-.75.74-.74.74-.74,0-1.48a3.87,3.87,0,0,0-4.45,0c-.74.74-.74.74-.74-.37s-.37-1.11-1.49-.74c-1.11,0-1.48,0-1.48-.37s-.37-.75-1.49-.75c-.74,0-1.85,0-2.22-.37-.75-.74-1.86-.37-2.6.37-1.11.75-1.11.37-.37-.74a8.09,8.09,0,0,1,1.85-1.11c2.23-.37,1.49-1.12-1.11-1.86l-2.6-.37h3.71c4.83,0,7.43-.74,7.43-2.23,0-.74-.38-.74-3.34-.74-3.72,0-3-.74,1.48-1.11,2.23-.37,3-.74,3.34-1.49s.74-1.48.37-1.48c-.37-.74-2.6-.74-4.45.37l-1.49.74L735,680c1.85-1.49,1.85-2.6.74-3.71-.74-.75-2.6-.75-26.72-.75-14.1,0-25.24.38-24.87,0,.37,0,11.14-.74,23.76-1.85l23-1.49L732,671.1c.74-.74,1.11-1.11,1.48-.74.75.74,1.86.37,3.71-1.49,1.49-1.48,1.49-1.48,1.86-7.79,1.11-19.67,8.16-37.48,20.41-49.73,8.91-9.28,18.93-14.1,29.69-14.84l4.46-.38v46h49V640.3c0-1.12,0-1.86-.74-2.23a2.83,2.83,0,0,1-.74-1.85c0-1.12-.37-1.12-1.49-1.12-1.85,0-2.59-.74-2.59-3.71a11.24,11.24,0,0,0-.75-4.08c-1.11-2.6-1.11-2.6,1.49-.74,1.11.74,2.23,1.85,2.23,2.59l.74,1.12.74,1.11a15.09,15.09,0,0,0,2.6,4.45c1.48,2.6,2.6,4.09,2.6,5.2,0,1.48,0,1.48,1.85,1.48h1.86V546.77h-1.12c-.74,0-1.85-1.11-3-2.22-1.48-1.49-1.85-2.23-1.85-3.71a7.24,7.24,0,0,0-.37-3c-.37-1.12-.37-1.12.37,0,.37.74.74,1.48,1.11,1.48.74,0,1.12,1.12,1.12,3,0,1.11.37,1.49.74,1.49a3.91,3.91,0,0,1,1.85.74l1.12.74v-4.45c0-3.71,0-4.46-1.12-4.83-.74-.74-.74-.74-.37-1.48,1.49-1.86,1.49-2.23-1.48-2.23-2.23,0-2.6.37-2.6.74,0,1.12-1.11,1.49-1.86.37l-.74-1.11H817.72C800.65,533.79,791.74,533.79,788.4,534.16Z"/><path class="cls-2" d="M864.11,599.1v65.69l1.11,2.6a10.09,10.09,0,0,0,3.34,4.45c2.23,1.49,2.23,1.49,4.46,1.12,2.59-.75,4.08-.75,4.08,0,0,.37-1.86.74-4.08.74-7.8.74-8.17.74-1.86,2.23,3,.74,8.54,1.48,12.25,2.22a51.15,51.15,0,0,1,6.68,1.12h-7.8c-6.68,0-8.16,0-10.39.74a9.36,9.36,0,0,0-2.6,1.11c0,.74,10.4,4.46,14.11,4.83l4.08.74L889,685.2l1.49-1.48-.37,1.48c-.37,1.49-.37,1.49,1.85,1.49a4.53,4.53,0,0,0,3.34-1.11l1.12-1.12-.38,1.12-.37,1.11,4.83.37c2.6,0,7.42.37,10.39.37,4.45,0,5.57,0,5.2.74-.38.37-5.57.75-20.79.75H874.87l4.08,1.85,3.71,1.86s-3-.37-6.3-1.12a51.48,51.48,0,0,0-9.28-1.11h-3l3,3c1.85,1.85,3.34,3,4.08,3,1.86,0,1.86.74,0,1.85s-2.23,1.49-.74,2.23c.74.37,1.85.37,4.45-.37,1.86-.37,3.34-.74,3.34-.37a5.21,5.21,0,0,1-1.85,1.11c-1.12.37-1.86.74-1.86,1.11s1.48.75,3.34,1.49,3,1.11,3,1.48a50.61,50.61,0,0,1-5.57-.37c-3-.37-6.68-.74-8.16-1.11l-3-.37V737.9c0,19.3,0,34.89.37,34.89l1.48-.74c1.12-.75,1.49-.75,1.86-.37h1.48c.75-.75,4.83-.38,5.57.74.74.74,1.11.74,1.86,0l1.11-.37c.74.74,4.08,0,5.2-1.12,1.11-.74,1.48-1.11,2.22-.74s1.49.37,2.6-.74a4.09,4.09,0,0,1,2.23-1.11c.74,0,.74,0,0,.37-.37.37-1.49,1.11-1.86,1.85-.74,1.12-1.11,1.49-2.23,1.12-1.85-.38-4.82,1.11-5.93,3-1.12,2.23-3.71,2.6-4.83,1.12-.74-.74-.74-.74-2.22-.37-1.12.37-1.49.37-1.86-.37l-1.11-.38a35.29,35.29,0,0,1-3.34,1.49l-3,1.11V814h76.45V690.77l41.19,61.61,41.2,61.6h38.22c20.79,0,37.86,0,37.86-.37l-53.44-85.36s-3,1.86-5.94,4.09l-5.2,3.71-7.79-1.49c-4.45-.74-8.17-1.48-8.91-1.48a14.43,14.43,0,0,0-3.34.37c-1.48.37-2.6.74-2.6.74-.37,0,1.86-3.34,2.6-4.08.37-.37,2.6-.37,9.65.74l8.91,1.12,4.82-4.83c2.6-2.6,4.83-4.82,5.2-4.82,0,0-4.08-7.05-9.28-15.22l-9.28-15.22,3.34-1.85c20.79-10.76,36.37-31.92,41.57-55.67,4.82-22.64.37-46.39-12.25-64.2a108.12,108.12,0,0,0-24.86-23.76,86.17,86.17,0,0,0-19.67-9.27c-10-3.34-8.54-3-44.17-3.34l-32.66-.38v5.2c0,12.62,0,14.1.38,14.1l.74.75-.37.37c-.37-.37-.37.74-.37,2.59,0,3-.75,3-1.12-.74a4.69,4.69,0,0,0-.74-2.22v-.75c.74-.37.37-5.56-.74-16.33l-.37-2.59H865.22V599.1Zm83.13-43.42c2.23,2.23,3.34,3.34,4.08,3.34,1.12,0,1.12,0,.37.74q-1.66,1.13,0,3.34c1.12,1.49,1.49,2.6,0,1.86A33.83,33.83,0,0,0,948,563.1c-2.6-1.11-2.6-1.11-4.08-4.45-1.11-3.34-1.48-5.57-.37-5.57C943.9,552.71,945.38,553.83,947.24,555.68Zm-4.82,17.07,1.48.75a3.73,3.73,0,0,1,1.11.37c0,.37.37.74,1.12.74,1.85.37,2.59,2.6,1.48,3.71-1.11.74-1.48.74-1.48-.74,0-.74-.37-1.12-.75-1.12a15.08,15.08,0,0,1-2.59-.74c-1.49-.37-1.86-.37-2.23.37s-.74.75-2.23-.37c-1.48-.74-1.48-1.11-.74-1.48a2.83,2.83,0,0,0,.74-1.49c0-.37,0-1.11.37-1.11C938.7,570.9,942,572,942.42,572.75Zm10,12.25a2.17,2.17,0,0,0,1.85.74c1.86,0,2.6.37,3,3,.37,1.49,0,2.23-.37,2.6a1.64,1.64,0,0,0-.37,1.86c.37,1.48-.74,2.22-1.86,1.11-.37-.37-.74-1.49-1.11-1.86-.37-.74,0-1.11.74-1.11,1.86,0,2.23-1.11.74-2.23-1.48-1.48-1.85-1.11-2.22.75-.37.74-.75,1.48-1.12,1.48-1.11,0-4.45-3.71-4.45-4.45s2.6-2.23,4.45-2.23C951.69,584.26,952.44,584.63,952.44,585ZM968,589.45c.75.75.75,1.12,0,1.49-1.11.74-1.11,2.23,0,1.85l.75-.74c0-.37.37-.37,1.11-.37a3.83,3.83,0,0,1,1.48.37l1.49,2.23a10.14,10.14,0,0,1,1.48,2.6c0,.37,1.49.37,3.71.37,3.34,0,3.34,0,3.71-1.49A1.19,1.19,0,0,1,984,595c.37.37,1.11.37,2.23.37a16.66,16.66,0,0,1,4.45-.37c2.23,0,2.23,0,2.23,1.11s0,1.49-2.23,1.49h-2.22l2.22.37a34.55,34.55,0,0,1,4.83,1.48q4.46,1.68,2.22,0a2.83,2.83,0,0,1-.74-1.85c0-1.11,0-1.49,1.11-1.11s1.12.37,1.12,2.22c0,2.23,0,2.23,2.22,3.71a30.55,30.55,0,0,1,3,2.23l1.12.74c.74,0,4.08,3.34,4.08,4.08l-.74,1.12c-.75.37-.75,1.85-.37,6.68a27.75,27.75,0,0,1-.38,8.53c-1.85,8.17-7.05,13-16,15.59-3.72,1.11-4.83,1.11-27.47,1.11H940.93v-46h12.25c6.68,0,12.62,0,13-.38.74-.37.37-2.59-.74-3.34-1.49-1.11-1.12-5.19.74-5.19A8.33,8.33,0,0,0,968,589.45Zm74.23,23c.74.75,1.11.75,2.22,0,1.49-.74,1.86-.74,2.6-.37a4.73,4.73,0,0,0,2.23.37c1.48-.37,1.85,1.12.74,2.6-.74.74-.74,1.12-.37,2.6s.37,1.48-.37,2.23c-1.11.74-1.49.74-2.6-.37-1.48-1.49-1.85-1.12-1.85.74a4.06,4.06,0,0,1-1.49,3.34c-1.48,1.48-1.48,1.48-1.85.37-.38-.74-.38-1.11.37-1.86,1.11-1.48.74-2.59-.37-2.59-2.23.37-2.6-.38-2.23-4.09a21.57,21.57,0,0,0,.37-3.71C1040.39,611,1041.13,611.35,1042.25,612.46Z"/><path class="cls-2" d="M1048.19,535.27c.37.74,10.76,18.93,22.63,40.45,11.88,21.16,23.76,42.31,26.35,46.76s5.57,10,6.68,12.25,5.94,10.39,10.4,18.19,10.39,18.92,13.73,24.49l5.56,10.39v11.88c0,6.68,0,11.87.38,11.87,0,0,1.48-.74,3.34-1.85l3-1.86,7.06,3.71c7,3.72,7,3.72,8.53,3.34,1.86-.74,2.23-.74,3,.75s1.11,1.48,4.08,1.48h3.34l2.23,4.08,2.23,4.46,7.79,5.19c4.45,3,7.79,5.57,7.79,5.57,0,.37-2.22-.74-10.39-4.45l-8.16-3.72-1.49-3.34c-1.11-3.34-1.48-3.34-3.34-3.71-1.11,0-4.08-.37-6.68-.37h-4.45l-5.2-4.45-5.19-4.46-3.34,1.86c-2.23,1.11-3.71,2.23-4.08,3s-.75,10.76-.75,39v37.85l1.12.74c1.11.75,1.11.75.74,4.46-.37,3-.37,3.71.37,4.45a3.14,3.14,0,0,0,1.86,1.11c.37,0,1.11.75,1.48,1.49a3,3,0,0,0,1.86,1.85,17.83,17.83,0,0,1,3.71,2.6l2.59,2.23,4.46.37c3,.37,4.45.37,5.19,1.11s4.09.75,27.1.75H1210V786.52l-3-2.23c-3.34-2.59-5.94-3-7-1.11-.38.74-.75.74-.75.37-.37-.74-5.93-1.11-6.31-.37-.74,1.11-1.85.37-3-.74l-.75-1.49h-4.82c-4.46,0-4.83,0-2.23-.37a38.41,38.41,0,0,1,7-.37c3.71,0,4.46-.37,5.2-1.11,1.85-2.6,1.85-2.6,7.42-2.23,6.68.37,7.42,0,3.71-2.23-2.6-1.48-3-1.48-7-1.48-3.34,0-4.45,0-4.82.74s-1.49.75-1.49,0l-.37-.74-.37-.74c0-.74-.37-.74-1.11-.37a9.27,9.27,0,0,1-3.34.37h-1.49c.74-.37.74-.74.74-1.49-.37-1.11,0-1.11,1.12-.74,1.85.37,4.82-1.48,5.56-3.34l.38-1.48h-2.23a8.18,8.18,0,0,1-2.23-.37c-.37-.75-2.23-.75-22.64-1.12-15.21-.37-16-.37-10-.74,3.71-.37,9.65-.37,13-.37,4.83,0,6.68-.37,7.42-.74.75-.75,1.49-.75,4.83-.37,5.19.74,5.94.74,7.42-.75,1.11-1.48,1.49-1.48,4.46-1.48,2.59,0,3.34,0,4.45-1.11a4.49,4.49,0,0,1,3.34-1.12c1.48,0,2.23-.37,2.6-1.11s1.11-1.11,3.71-1.11h3.34V689.66l3.71-7,3.71-7.05-1.11-4.83a47.85,47.85,0,0,1-1.12-4.82,16.45,16.45,0,0,1,2.23,3,16.33,16.33,0,0,0,2.23,3c.37,0,31.17-54.92,43.42-76.45,5.19-9.65,5.57-9.65,11.13-19.67,2.6-4.82,8.54-14.84,13-22.64s8.17-14.84,8.91-15.58L1298,536h-80.9l-17.82,34.52c-9.65,18.92-20,39-22.64,44.16l-5.19,9.65-21.9-44.16L1127.61,536h-11.14c-10.39,0-11.13,0-11.5.74s-.37.75-.74,0a2.88,2.88,0,0,0-1.86-.74c-1.11,0-1.48,0-1.11,1.49s.37,1.48-2.23,1.48c-3,0-3.34-.74-1.11-1.85l1.48-1.12h-2.6c-2.22,0-2.59,0-2.22.74,0,.75,0,1.12-.75,1.12-1.11.37-2.22-.37-1.85-1.12s-1.86-.74-22.27-.74h-22.64Z"/><path class="cls-2" d="M381.28,600.59c-.75.37-.75,1.48-.37,3.34.37,2.22.37,2.6-.75,3.34-.74.74-.74.74,0,1.48s.75.74,2.6-.74c1.11-.74,2.23-1.86,2.6-1.86,1.11,0,2.23-1.48,2.23-2.59,0-.75-.37-1.12-1.86-.75-1.86.38-1.86,0-2.23-.74C383.13,600.22,382,599.85,381.28,600.59Z"/><path class="cls-2" d="M404.66,634.73c-.37,0-1.49,1.11-2.6,1.86-1.48,1.48-1.86,2.22-1.86,3.34,0,1.85,0,1.85-2.22.74-.37,0-.74,0-.74.74,0,1.11,0,1.11-1.86.74-1.11,0-2.23-.37-3-.37-.74-.37-1.11,0-1.48,1.86-.37,2.22-.37,2.22-2.6,2.22-1.49,0-2.23.38-2.23,1.12l-1.11.74c-.74,0-1.12.37-1.12,1.48a3,3,0,0,1-1.85,1.86c-1.49.74-1.49.74-1.11,2.23.37,2.6,1.48,3.71,4.45,4.08,2.23.37,2.6.37,3.71-1.11a3.43,3.43,0,0,0,1.11-1.86c0-.37,1.49-.37,3.34-.37,3.72,0,5.57-.74,5.57-2.23,0-.74.74-1.11,3-1.48,3-.37,4.82-1.12,5.94-2.6a5.59,5.59,0,0,1,3.34-1.48c1.48-.38,3-.75,3.34-1.49.74-.74,1.11-1.48,1.11-5.19v-4.09l-2.6.37c-2.22.38-2.59.38-2.59-1.11,0-1.11,0-1.48-2.6-1.11A8.6,8.6,0,0,1,404.66,634.73Z"/><path class="cls-2" d="M846.67,783.92c-1.86.37-1.86.37-2.23,2.6,0,1.86-.37,2.23-.74,2.23s-.75.37-.37,1.85c0,2.6,0,3-.75,3-.37,0-.74.37-.74,1.12-.37,1.48.74,1.48,3.71.37,1.86-.75,2.23-.75,3.71,0l1.49.74v-5.57c0-4.45,0-5.56-.74-5.56l-.75-.75A5.5,5.5,0,0,0,846.67,783.92Z"/></g></g></svg>