<svg xmlns="http://www.w3.org/2000/svg" viewBox="0 0 1387.53 1387.53"><defs><style>.cls-1{fill:#f7e977;}.cls-2{fill:#fff;stroke:#1d1d1b;stroke-miterlimit:10;stroke-width:5px;}.cls-3{fill:#1d1d1b;}.cls-4{fill:#e30613;}.cls-5{fill:#2f4e9d;}</style></defs><g id="Laag_2" data-name="Laag 2"><g id="Laag_1-2" data-name="Laag 1"><rect class="cls-1" width="1387.53" height="1387.53"/><circle class="cls-2" cx="244.34" cy="675.98" r="194.77"/><path class="cls-3" d="M243.63,481.21c-107,0-194,87.38-194,194.77s87.06,194.76,194.05,194.76S437.69,783.36,437.69,676,350.63,481.21,243.63,481.21Zm0,362.55c-92.31,0-167.1-75.13-167.1-167.78S151.32,508.2,243.63,508.2,410.8,583.26,410.8,676,336,843.76,243.63,843.76Z"/><path class="cls-3" d="M371.32,708.24h2v4.19h1v-4.19h2v-.89h-4.93Z"/><path class="cls-3" d="M139.8,726.91H128.6c-2.53,0-3.73-1.4-3.73-4.13v-4.45a4.64,4.64,0,0,1,1-3.11,3.35,3.35,0,0,1,2.72-1.2h8.8a4,4,0,0,1,4.11,3l1.2,4.26h8v-4.7a10.54,10.54,0,0,0-3.16-7.87,10.74,10.74,0,0,0-7.79-3.12h-13a10.77,10.77,0,0,0-7.91,3.31,10.64,10.64,0,0,0-3.22,7.81v7.62a11,11,0,0,0,11.13,11.17H138c2.47,0,3.73,1.46,3.73,4.26v5.78a4.44,4.44,0,0,1-1,3A3.39,3.39,0,0,1,138,749.9h-8.92a3.91,3.91,0,0,1-4.18-3l-1.2-4.83h-8.1v5.21a10.45,10.45,0,0,0,3.17,7.87,10.58,10.58,0,0,0,7.84,3.18H139.8a10.56,10.56,0,0,0,7.85-3.3,10.86,10.86,0,0,0,3.23-7.94v-8.89a10.76,10.76,0,0,0-3.29-7.88A10.5,10.5,0,0,0,139.8,726.91Z"/><path class="cls-3" d="M185.42,705.63H161.7v52.58h9.23v-19.3h14.43a11.15,11.15,0,0,0,11.2-11.18V716.68a11,11,0,0,0-11.14-11Zm2,20.52a4.67,4.67,0,0,1-1.07,3.11,3.31,3.31,0,0,1-2.66,1.2H171V714.14h12.65a3.29,3.29,0,0,1,2.66,1.21,4.67,4.67,0,0,1,1.07,3.11Z"/><path class="cls-3" d="M284.7,732.37a11.17,11.17,0,0,0,2-6.48v-9.14a10.57,10.57,0,0,0-3.29-7.81,10.83,10.83,0,0,0-7.91-3.31H252.3v52.58h9.3V737.64h8.8l8.54,20.57h9.87l-9.17-21.71A12.65,12.65,0,0,0,284.7,732.37Zm-7.34-7.43a4.62,4.62,0,0,1-1,3.11,3.46,3.46,0,0,1-2.66,1.14H261.54V714.14h12.15a3.3,3.3,0,0,1,2.66,1.21,4.64,4.64,0,0,1,1,3.11Z"/><path class="cls-3" d="M292.48,714.14h13.35v44.07h9.3V714.14h13.42v-8.51H292.48Z"/><path class="cls-3" d="M359.42,726.91h-11.2c-2.46,0-3.73-1.4-3.73-4.13v-4.45a4.64,4.64,0,0,1,1-3.11,3.28,3.28,0,0,1,2.72-1.2H357a4,4,0,0,1,4.11,3l1.2,4.26h8v-4.7a10.73,10.73,0,0,0-11-11h-13a10.57,10.57,0,0,0-7.91,3.31,10.71,10.71,0,0,0-3.29,7.81v7.62a11,11,0,0,0,3.29,7.94,10.8,10.8,0,0,0,7.91,3.23h11.14c2.53,0,3.73,1.46,3.73,4.26v5.78a4.49,4.49,0,0,1-1,3,3.42,3.42,0,0,1-2.72,1.27h-8.86a3.91,3.91,0,0,1-4.18-3l-1.2-4.83h-8.1v5.21a10.83,10.83,0,0,0,11,11h13.1a10.61,10.61,0,0,0,7.91-3.3,10.86,10.86,0,0,0,3.22-7.94v-8.89a10.55,10.55,0,0,0-3.35-7.88A10,10,0,0,0,359.42,726.91Z"/><path class="cls-4" d="M270.91,571.39H171.12l-15.24,24.32,99.71-.07Z"/><path class="cls-4" d="M308.68,644.35H293.75l-15.38,24.39H324l15.38,24.38h29.1L291.28,570.5l-62,98.3H161.44L177,644.42h42.14L234.46,620h-94l-15.31,24.39h22.52L117,693.12H243.32l48-76.46Z"/><path class="cls-3" d="M382.27,707.35l-2,3-2-3h-.82v5.08h.82v-3.18c0-.19-.13-.31-.13-.57a4.36,4.36,0,0,1,.32.51l1.64,2.54h.13l1.58-2.48a4.48,4.48,0,0,0,.26-.57v3.75H383v-5.08Z"/><path class="cls-3" d="M229.84,705.63H217.31a11.27,11.27,0,0,0-11.26,11.12V747a11.25,11.25,0,0,0,11.26,11.31h12.53A11.25,11.25,0,0,0,241,747V716.75a10.39,10.39,0,0,0-3.29-7.81A10.57,10.57,0,0,0,229.84,705.63Zm2,39.76a4.3,4.3,0,0,1-1.07,3.05,3.39,3.39,0,0,1-2.66,1.27h-8.86a3.41,3.41,0,0,1-2.72-1.27,4.55,4.55,0,0,1-1-3.05v-27a4.57,4.57,0,0,1,1-3.11,3.33,3.33,0,0,1,2.72-1.21h8.86a3.3,3.3,0,0,1,2.66,1.21,4.65,4.65,0,0,1,1.07,3.11Z"/><path class="cls-5" d="M501.92,576.72H650.86l-7.53,43.82H549.5L543,657.37h75.61l-7.52,43.82H535.2L522,777.08H466.61Z"/><path class="cls-5" d="M670.22,576.72H725.4L690.09,777.08H634.92Z"/><path class="cls-5" d="M744.76,576.72H893.7l-7.53,43.82H792.4L786,657.37h75.61L854,701.19H778.17L765,777.08H709.58Z"/><path class="cls-5" d="M939.89,576.4h61.88L1034,777H979.12l-4.49-35.11H905.47L888.64,777H835.43Zm29.42,123.65-9.23-72.21h-1.14l-33.6,72.21Z"/><path class="cls-5" d="M1315,576.72l-64.23,11.94-6.08,36.39,35.19-1.65L1252.71,777h51l35.12-200.29Z"/><path class="cls-5" d="M1073.65,746.72l66.06-63.25c14.55-14,37.77-35.37,37.77-54,0-10.41-7.84-15.43-17.34-15.43-17.65,0-21.83,14.93-24.1,29H1086.5c.25-.83,1.7-10.1,2-11,7.53-40.45,42-58.17,81.74-58.17,31.39,0,60.18,12.64,60.18,48.08,0,39.37-40.05,69.66-66.62,93.6L1145,732.43l-.26,1.4h69.16l-7.53,43.25h-138Z"/></g></g></svg>