<svg xmlns="http://www.w3.org/2000/svg" viewBox="0 0 1387.53 1387.53"><defs><style>.cls-1{fill:#59c4e8;}.cls-2{fill:#fff;}</style></defs><g id="Laag_2" data-name="Laag 2"><g id="Laag_1-2" data-name="Laag 1"><rect class="cls-1" width="1387.53" height="1387.53"/><path class="cls-2" d="M48.8,693.76c0,99,.24,179.91.57,179.91.49,0,67-12.32,75.14-13.95l4.24-.82V726.81h50.59V714.73c0-6.61.24-23.82.57-38.35l.49-26.27H128.75V592.18h29.78c16.4,0,29.78-.16,29.78-.4,0-.9,6.53-70.58,6.94-74.09l.49-3.83H48.8ZM1269.22,524.38l-65.11,5.39V854.82l2.69.41c2.37.41,128.42,9.55,131,9.46.73,0,1-8.65,1-40.38V783.92h-55.48V725.18h47.32V655h-49V608.5l1.87-.32c1-.25,9.3-.58,18.52-.9s21.22-.65,26.77-1l10-.49V518.75l-2.2.08C1335.22,518.92,1305,521.36,1269.22,524.38Zm-418,11.26c.82,8.16,10.12,131.12,10,131.28s-12.08-29.29-26.68-65.43-26.77-66.09-27.09-66.66c-.49-.9-23,3.26-60,11.09l-3.51.74v280.5h72.62l-.41-5.87c-.82-10.94-3.84-101.34-3.51-104.93.24-3.18,2.69,2.37,25.86,58.34,14,34,26,62.17,26.28,62.66.48.49,11.83-.24,31.08-1.88,16.73-1.46,30.43-2.77,30.43-2.85s-.32-58.91-.89-130.71-1.06-139.6-1.06-150.78L924.25,531H850.74ZM276.84,536c-48.79,3.26-75.63,36.63-84.12,104.35-1.71,14-2.45,61.68-1.22,78.33,4.08,54,18.68,89.09,44.63,107,14,9.55,34.92,14.69,55.64,13.46,23.58-1.3,39.65-8,54.09-22.43,11.84-11.83,18.28-22.93,24.48-41.86,8.65-26.43,12.57-65.92,10.61-107-2.2-46-9.14-74.66-23.42-96.61-13.62-20.88-35.16-33.37-60.29-34.92-4-.24-8.24-.49-9.39-.65s-6,.08-11,.41Zm11.5,64.13c6,6.44,8.49,32.14,8.49,87.14,0,67.72-4.24,95.86-13.54,89.83-4-2.7-7-15.83-8.49-37.62-1.06-15.91-1.06-88.77,0-104,1.55-21.54,4.32-33.46,8.49-36.31C285.57,597.49,286,597.57,288.34,600.1Zm103.13,84.2V832.87h74.82l.49-10.36c.33-5.79,1-24.56,1.47-41.85s1.14-32.48,1.47-33.7c.41-1.71,3.91,9.3,14.68,46.51,7.84,26.84,14.45,49.11,14.77,49.44.65.73,77.19-5.3,78-6.12.25-.33-8.24-27-18.85-59.48L539.07,718.4l4.08-3.59c13.54-11.83,24.72-34.67,27.9-57.27,1.39-9.88.49-34.35-1.63-43.41-8.16-35.49-29.78-63.07-57.36-73.35-12-4.4-11-4.32-67.72-4.65l-52.87-.32Zm84.12-78.16c5.8,2.85,10.53,10.19,13.06,20.31,1.71,6.77,1.47,28.23-.41,35.09-3.51,12.89-9.71,20.39-19,23.25l-1.88.49V603.61l2.69.57a24.75,24.75,0,0,1,5.55,2Zm97.83-31.5v37.94H615V831.24h78.33V625.64h42.42V549.76l-1.79-.33c-1.72-.41-157.31-12.81-159.51-12.73C573.66,536.7,573.42,544.86,573.42,574.64ZM941.39,693V841h80.77V544.86H941.39Zm173-137.81c-44.22,2.37-81,4.33-81.75,4.33-1.39.08-1.47,2.44-1.47,38.43v38.34h41.61V850.82h79.14V627.27H1196V588.92c0-21.13-.25-38.27-.57-38.27S1158.58,552.69,1114.36,555.14Z"/></g></g></svg>