<svg xmlns="http://www.w3.org/2000/svg" viewBox="0 0 1387.53 1387.53"><defs><style>.cls-1{fill:#3d3d3d;}.cls-2{fill:#010202;stroke:#010202;}.cls-2,.cls-3{stroke-miterlimit:27.39;stroke-width:0.64px;}.cls-3{fill:#fff;stroke:#fff;}</style></defs><g id="Laag_2" data-name="Laag 2"><g id="Laag_1-2" data-name="Laag 1"><rect class="cls-1" width="1387.53" height="1387.53"/><path class="cls-2" d="M1001.24,195.67c49.23-.64,98.14-.33,147-.33V574.15c-152.48.32-305,0-457.45,0a108.54,108.54,0,0,0-14.38,1c5.75,6.71,13.74,10.55,21.1,15.66,6.07-3.83,11.51-10.55,19.18-10.23h141c11.19-.32,19.51,9,27.81,15,12.79-7,26.54-16,41.88-15h276.84v17.58h97.49V836.27c-2.23,22.7-15.34,46-36.76,56-10.55,5.43-22,9.91-33.56,11.18h-95.9c-23.66-.95-49.55-9.26-62.34-30.36-16-24.62-11.82-55.31-11.19-83.12h-58.17c-.64,28.45.32,56.91-.33,85.68,29.73,3.52,58.82,24.93,62.34,56.26.64,67.45,0,134.58,0,202-1.28,30-28.45,55-57.87,58.17-36.43,0-72.88-.32-109.32,0-16,0-31.33-6.71-44.11-16-12.47,8.32-26.21,15.66-41.56,15.66-37.4.32-74.8,0-112.52.32-18.86.33-36.13-9.26-50.19-21.41-14.71,13.75-34.52,22.7-55,21.41-37.4-1.27-75.12,2.56-112.21-2.55-13.42,3.83-27.49,2.23-41.23,2.55-47,0-94-.32-140.65,0-30.37,1.93-59.78-20.14-66.81-49.22-.64-67.13,0-134.26-.32-201.39-1-17.58,8-34.2,20.78-45.71C268.57,882,288.07,877.52,306.61,874a68,68,0,0,1-18.22-50.19v-95.9c-5.43-.32-10.55-.32-16-.32V645.44c-45.72,0-91.75-.33-137.46,0V347.19c.32-13.75-1.6-27.81,3.2-41.24,9.59-25.57,33.56-45.39,60.73-48.91,99.1-.32,198.2,0,297.29,0,17.9-.64,35.17,7.67,47.95,20.14,15.66-16.3,39-21.1,60.74-20.46,32.6.64,65.53-1.27,98.13,1.92,8.63,2.88,17.59-1.59,26.22-1h141c22.06-.63,44.76,4.16,62,18.22,17.59-18.54,45.08-21.09,69.06-19.18V195.67Z"/><path class="cls-3" d="M1040.56,234.67c24-1.92,48.27-.64,72.57-1V534.19c-43.8,0-87.28.32-130.75,0-16.3-1-35.48-11.82-35.48-30.05V324.49c.64-17.9,18.86-28.77,35.16-29.73,19.18-1,38.68,0,58.18-.32.32-19.82,0-39.95.32-59.77ZM172,324.81c.32-19.18,20.14-30,37.4-30,42.2-.64,84.39,0,126.59-.33.64,95.27,0,190.84.32,286.43.64,16.3-17.26,26.85-32,28.44-44.11.33-88.23,0-132.66,0,.32-18.85-1-37.72,1-56.57,31-.33,62.34,0,93.34-.33v-17.9c-20.77-1.28-41.55,1-62-1.28-16.62-1-33.57-14.7-32.29-32.6C171.71,442.13,171.39,383.31,172,324.81Zm194.36-30.05c39.95-1,80.24,0,120.19-.32,14.71-.64,31.33,2.88,40,16,6.71,8.64,4.47,20.15,4.8,30.37-.33,20.14.63,40.28-.33,60.1-1.59,8.95-12.78,9.91-19.18,13.43,7.36,3.52,19.51,5.43,19.51,16,.32,40.92,0,81.51,0,122.43,20.77,0,41.55-.32,62,0,.64,22.38,0,45.08.32,67.77,19.82.32,39.64-.32,59.14,0,16.62.32,34.2,13.11,34.2,31,.32,71.28,0,142.89,0,214.17-24,.33-48.27.33-72.56,0,0-62.65.32-125.31,0-187.64H593.67V865.68c-24.3.33-48.59.33-72.56,0-.33-85.35-.33-171-.33-256.37-14.7-1-31.32,3.2-44.75-5.11-8.63-4.8-17.26-13.11-16.62-23.34V443.08H438c-.32,30.05,0,60.1-.32,90.15a534.62,534.62,0,0,1-71.6,0c0-79.27-.64-158.87.32-238.47Z"/><path class="cls-3" d="M560.1,324.49c-1.28-18.54,19.82-29.73,36.13-30.05,30.36-.32,60.73,0,91.42,0,17.26,0,37.08,11.52,37.72,30.7.32,69.68,0,139.37,0,209.05H598.47c-15.67,0-34.53-8-38-24.29-.64-31,0-61.7-.32-92.7-2.24-16.31,15-27.18,28.77-31,21.41-1.6,42.51,0,63.93-.64V352H630.75c-.32,4.8-.32,9.59-.64,14.39h-70c0-14.07,0-27.81,0-41.88Zm193.72-29.73c23.66-.64,47.63-.32,71.29-.32.32,5.76.32,11.51.32,17.26,16.31-12.78,37.4-16.94,57.54-16.94,14.71.32,31.65,8.95,34.84,24,1,71.92-.64,143.52,1.28,215.45H847.16c.64-60.74,1-121.15.33-181.89-7.36-.32-14.71-.32-22.06-.32-.32,60.73.32,121.47,0,182.21H753.51c0-79.91-.33-159.83.31-239.43Z"/><path class="cls-2" d="M243.63,352h21.42c.32,41.56,0,83.12.32,124.67H243.63V352Zm194,0h21.74v33.57H437.67Q438.15,368.77,437.67,352Zm581.15,0h21.42c0,41.56.32,83.12,0,124.67h-21.42ZM631.07,443.09h21.74v33.56H631.39C631.39,465.47,631.07,454.28,631.07,443.09Z"/><path class="cls-3" d="M366.71,562.32c21.73,0,43.47-.32,65.53,0v27.81H366.71Zm-39,59.14c24-1.92,47.62-.64,71.6-.64,0,4.8.32,9.91.32,14.71,31,.32,62.34.32,93.34,0v56.9H399.31q.48,55.14,0,110.28h21.74v-91.1H493c0,40.6.32,81.19-.32,121.47.32,18.54-16.94,32.61-34.52,32-33.25,0-66.49.32-99.42,0-17.9-1-31.33-17.9-31.33-35.17,0-45.71.32-91.42,0-137.45-6.39,0-12.79,0-19.18-.32.32-18.86.32-37.4,0-56.26,6.39,0,12.79-.33,19.18-.33,0-4.79.33-9.58.33-14.06Zm381.67,29.09c-1-17.26,17.26-29.09,32.93-29.73,32-.64,63.94-.32,95.9-.32,17.26-.32,36.76,11.51,36.76,30V769.14c-31.33,0-62.33-.32-93.66,0,0,11.19.32,22.38.32,33.57h21.1c.33-4.8.33-9.91.64-15,23.65-.32,47.63,0,71.6-.32-.64,17.25,1.28,34.84-1.27,51.78C870.5,857.05,852,866.64,835,866c-30.7-.32-61.7.32-92.71-.64-16.94-.64-32.93-14.38-32.6-32-.33-61,0-121.78-.33-182.84Zm188,0c-.64-17.26,17.58-29.09,33.57-30h132c-.33,19.18,0,38.36-.33,57.54H969.28v17.27c31.32.63,62.33,0,93.66.31q-.5,28.77,0,57.54c-31.33.33-62.34-.32-93.66,0-.33,37.73,0,75.13,0,112.53q-36,.48-71.93,0V650.55Zm200.11-30c24,.33,48.27,0,72.25,0,0,5.12.32,10.23.32,15,31,.32,62.34.32,93.34,0v56.9c-31,0-62.33-.32-93.34,0q-.48,55.14,0,110.28h21.42v-91.1h71.92v125c-.32,15.35-15.66,24.94-29.09,28.13-32,1-63.93-.64-95.9,1-14.06.64-29.41-5.11-36.44-17.9-5.11-9.27-4.79-20.46-4.79-30.69,0-41.56-.32-83.12.32-124.67-6.4,0-12.46,0-18.86-.32.32-18.86.32-37.4,0-56.26,6.07-.33,12.15-.33,18.22-.33.31-5.11.31-10.22.63-15Z"/><path class="cls-2" d="M781.31,678h21.74v33.57H781.31Z"/><path class="cls-3" d="M272.72,935.69c4.48-16,22.06-24.93,38-24.3,30.69.33,61.7-.32,92.71.33,15.34.63,32.92,10.86,33.56,27.81v212.25c-43.15.32-86.31.32-129.14,0-14.07-.64-30.37-7.67-35.17-21.74q-1-52.26,0-104.53c6.72-12.46,19.82-23,34.53-23,19.5,0,39.32.32,58.82,0-.33-11.19,0-22.38-.33-33.57H344.65c-.32,4.8-.32,9.59-.64,14.39H272.4c.32-16-.64-31.65.32-47.63ZM467.4,911.4h70.33c0,60.74-.33,121.47,0,182.21,7.35,0,14.7,0,21.73.32-.32-60.73,0-121.47,0-182.53h71c-.32,72.89.32,145.77-.32,218.65-5.12,15-23,22-38,21.1-30.69-.32-61.7.32-92.7,0-15.35-1.28-34.21-12.47-32-30.05V911.4Zm204.91,0h71.28c.32,5.12.32,10.23.64,15,31,0,62,.33,93,0-1,19.18-.63,38.36-.63,57.54-30.69.33-61.7,0-92.71.33-.32,36.43.32,72.88-.32,109.32,7.67,0,15.35,0,23,.32-.63-30.37,0-60.74-.32-91.43h70.33c-.32,39.33.32,78.64,0,118,.32,18.86-19.5,31.33-36.44,30.69h-93c-14.07,0-29.41-7.67-34.85-21.42-1-48.27,0-96.86-.32-145.44-6.07,0-12.15-.33-18.22-.33,0-19.18-.32-38.36,0-57.21h17.9c.33-5.12.33-10.24.65-15.35Zm218,1.6c7-2.24,14.38-1.6,21.42-1.6,28.77.32,57.54-.32,86.31,0,16,1,33.88,12.79,33.56,30.05v169.74c0,8-.32,16-4.16,23-7.35,11.82-22.05,17.58-35.8,16.94-30.69,0-61.7.32-92.7,0-15.66-1.28-33.57-12.79-32.61-30.05-.32-59.77,0-119.87-.32-179.65-1-14.07,11.83-24.62,24.3-28.45Z"/><path class="cls-2" d="M938,968.94h21.74c-.33,41.56.32,83.11,0,124.35-7.36.32-14.39.32-21.42.64-.64-41.56,0-83.43-.32-125ZM344.33,1060h21.74a277.11,277.11,0,0,0,.64,32.93c-7.68.64-15.35.64-22.7,1,.32-11.19.32-22.7.32-33.89Z"/><rect class="cls-1" x="364.92" y="560.31" width="70.4" height="32.61"/></g></g></svg>