<svg xmlns="http://www.w3.org/2000/svg" xmlns:xlink="http://www.w3.org/1999/xlink" viewBox="0 0 1387.53 1387.53"><defs><style>.cls-1{fill:#38acb5;}.cls-2{fill:#fff;}.cls-3{fill:url(#Naamloos_verloop_4);}.cls-4{fill:#010101;}.cls-4,.cls-5{opacity:0.4;isolation:isolate;}.cls-5{fill:url(#Naamloos_verloop_2);}.cls-6{fill:url(#Naamloos_verloop_3);}</style><radialGradient id="Naamloos_verloop_4" cx="112.54" cy="1273.41" r="417.11" gradientTransform="translate(0 -738.09)" gradientUnits="userSpaceOnUse"><stop offset="0" stop-color="#45a6de"/><stop offset="0.13" stop-color="#3f9ed8"/><stop offset="0.34" stop-color="#2b88c9"/><stop offset="0.62" stop-color="#1965af"/><stop offset="0.93" stop-color="#233977"/><stop offset="1" stop-color="#25336a"/></radialGradient><linearGradient id="Naamloos_verloop_2" x1="178.66" y1="1262.17" x2="510.1" y2="1262.17" gradientTransform="translate(0 -738.09)" gradientUnits="userSpaceOnUse"><stop offset="0" stop-color="#fff"/><stop offset="1" stop-color="#fff" stop-opacity="0"/></linearGradient><radialGradient id="Naamloos_verloop_3" cx="99.46" cy="1253.01" r="72.34" gradientTransform="translate(0 -738.09)" gradientUnits="userSpaceOnUse"><stop offset="0" stop-color="#fff"/><stop offset="0.68" stop-color="#7a7b7b"/><stop offset="1" stop-color="#404040"/></radialGradient></defs><g id="Laag_2" data-name="Laag 2"><g id="Laag_1-2" data-name="Laag 1"><rect class="cls-1" width="1387.53" height="1387.53"/><path id="path4" class="cls-2" d="M270.33,631.9s11.35.87,20.95,13.1l-5.23.87-2.62-.87S275.57,635.39,270.33,631.9ZM252.87,686l-5.24-13.1h-1.75l-8.73,10.48C243.27,688.65,252.87,686,252.87,686Zm80.32-76.83L328.82,611l5.24,9.6,17.46,6.11C344.54,611.82,333.19,609.2,333.19,609.2Zm-49.76,18.34a130.55,130.55,0,0,1,10.47,14.84c8.73-8.73,27.07-12.23,50.64-11.35A205.42,205.42,0,0,0,283.43,627.54Zm-32.31-13.1a128.15,128.15,0,0,1,22.7,2.62c-8.73-6.11-22.7-9.61-22.7-9.61Zm80.32,48L316.6,675.55l11.35,3.5,11.35-12.23-6.11-2.62-1.75-1.74Zm-98.65-69s6.11,3.49,7,3.49,13.1,4.36,18.34,6.11c4.36,1.75,7,0,7.85,0s15.72-8.73,15.72-8.73c-13.1-5.24-25.32-8.73-25.32-8.73C255.49,585.63,232.79,593.49,232.79,593.49Zm89,7.85c-.87-1.74-2.62-1.74-13.1-3.49-9.6-.87-18.33-1.74-20.08-1.74a3.81,3.81,0,0,0-2.61.87s-5.24,3.49-9.61,6.11-5.24,3.49-6.11,5.24c-.87.87,1.75,4.36,1.75,4.36l7,8.73c.87,0,3.49,1.75,3.49,1.75s14-.87,22.7-1.75H328c.87,0,0-3.49-1.74-7.85C324.46,610.07,321.84,601.34,321.84,601.34ZM238.9,611a6.8,6.8,0,0,1,2.62.87c1.75,0,2.62-1.75,2.62-3.49a3.89,3.89,0,0,0-2.62-3.49h-1.75l-2.62.87-.87,6.11h.87l1.75-.87a7.91,7.91,0,0,1-.87-4.37,3.93,3.93,0,0,1,2.62-2.62s1.74,0,.87,3.49C241.52,611,238.9,611,238.9,611Zm147.55,69-7,9.6v.88h9.61A11.25,11.25,0,0,0,386.45,679.92Zm-174.61-45.4h-1.75l-4.37-.87c-4.36-.88-2.62-8.73-2.62-8.73l-5.23,1.74c-1.75-3.49-9.61-13.09-9.61-13.09l-1.74,7a94,94,0,0,1,6.11,9.6L190,632.77a8.86,8.86,0,0,0-.87,2.62,3,3,0,0,1-.88,1.75l-3.49,1.74h-.87l-12.23-9.6v7h.88a13.23,13.23,0,0,0,7,7c3.49,1.75,7.86,1.75,9.61.87,1.74.88,2.61.88,3.49,1.75,3.49,1.75,4.36.87,4.36.87l5.24-1.74h.87l.88-.88,1.74-3.49s8.73.87,12.23.87c3.49-5.23,14.84-13.09,22.7-14,7.85,0,21,1.74,31.43,12.22,9.6,10.47,7,24.44,7,24.44l19.21,6.12-8.73-6.12C282.55,646.74,266,631,266,631a46.55,46.55,0,0,0-7-.88,12.25,12.25,0,0,1-4.36-2.61A25.59,25.59,0,0,1,252,624l-1.75-3.49a31.25,31.25,0,0,0-4.37-3.49c-2.61-1.75-12.22-2.62-17.46-3.49s-5.24,0-5.24,0c14.85,3.49,19.21,4.36,20.09,5.23a12.48,12.48,0,0,0,1.74,2.62c-12.22-2.62-23.57-.87-26.19,0a7.91,7.91,0,0,1,0,8.73C217.07,631.9,211.84,634.52,211.84,634.52Zm165.88,62.86,2.62,11.35a64.59,64.59,0,0,0,5.23-6.11,21.88,21.88,0,0,0,3.5-7l-10.48.88ZM167.31,617.93l-.87,9.61h5.23l.88-6.12v3.5h.87v-5.24h-.87v-3.49l7.86,4.36.87,1.75L183,624h1.75l.87-.87v-.87c-5.23,0-5.23-2.62-5.23-2.62s.87-6.11,1.74-7.86,4.37-.87,4.37-.87l-.88-.88H183.9c-1.75-.87-7-4.36-8.73-5.23V604l.87-.87V599.6h.87c0-.88.88-.88.88-1.75,1.74,0,14.84-2.62,14.84-2.62l-12.22-2.62v-.87a40.28,40.28,0,0,1-7.86-2.62,34.85,34.85,0,0,0-6.11,12.22s-.88,12.23-.88,14c-.87,1.75,1.75,2.62,1.75,2.62Zm205.17,69,1.74,2.62.88-.87,7-8.73v-.87C378.59,679.05,372.48,686.9,372.48,686.9Zm-21-15.71-5.23-1.75-12.23,14,8.73,2.62C344.54,679.05,351.52,671.19,351.52,671.19Zm18.34,20.08c-4.37,8.73-3.49,14.84-3.49,14.84l4.36-9.6v-1.75C371.6,694.76,370.73,693,369.86,691.27Zm-4.37-56.75a27.35,27.35,0,0,1-2.62,4.36c-.87.88-7,1.75-10.47,2.62-3.49,1.75-9.61,4.37-11.35,6.12-.88.87-.88,3.49-.88,4.36a8.86,8.86,0,0,0,2.62.87l-7.85,7,1.74,1.74,19.21,6.12c4.36-3.5,10.48-4.37,10.48-4.37-3.5-1.75-18.34-7.86-22.7-9.6,0,0-2.62-.88-2.62-1.75v-2.62a50.66,50.66,0,0,1,28.81-8.73l2.62-5.24Zm11.35,76.83-3.49-10.48h-.87l-5.24,9.61.87.87A13,13,0,0,0,376.84,711.35ZM245,611.82l2.62.87a1.71,1.71,0,0,0,1.75-1.74v-3.5l-2.62-1.74-3.49-.87a2.69,2.69,0,0,1,.87,1.74H245c0-.87.87-.87.87,0,0,0,1.75.87.88,3.49C247.63,611,245.88,611.82,245,611.82Zm-7.86,48c-6.11,11.35-1.74,19.21-1.74,19.21l7.86-11.35V666Zm-56.74-67.23,10.47,2.62c.87,0,7-.87,7-.87L181.28,590Zm6.11-2.62c14,1.75,16.58,4.37,16.58,4.37a68,68,0,0,1,7.86-.87c-4.36-3.5-23.57-9.61-23.57-9.61A21.39,21.39,0,0,0,186.52,590Zm20.95,27.07c-2.62,1.74-5.24,7-4.37,11.35s1.75,4.36,4.37,4.36c-4.37-1.74-3.49-8.73,0-13.09,2.62-3.49,5.24-.88,5.24-.88S210.09,615.31,207.47,617.06Zm-62,129.21c-11.35,0-24.44,4.37-16.59,16.59,64.61,110.88,132.71,137.07,161.52,151,13.1-6.11,34-15.72,59.37-33.18,14.84-9.6,13.09-24.44,9.6-34.05C341.05,801.27,240.65,749.76,145.48,746.27ZM509.55,539.36c-26.19-18.34-90.8-51.51-219.14-51.51-44.53,0-82.07,4.36-111.75,10.47a72.59,72.59,0,0,1,10.48,38.42A75.8,75.8,0,0,1,170.8,586.5a90.46,90.46,0,0,0,10.48,2.62l1.74-4.36a4.32,4.32,0,0,1,2.62.87c0-4.37,2.62-4.37,2.62-4.37a.86.86,0,0,1,.88-.87c4.36.87,16.58,7,21.82,9.6s5.24,3.5,5.24,3.5,12.22,0,15.72-.88c3.49,0,9.6-2.62,18.33-5.24s10.48-3.49,12.22-3.49,17.46.88,31.43,2.62,27.07,7,29.69,8.73l4.36.88.87-2.62-7-2.62s.87-4.37.87-5.24a1.89,1.89,0,0,1,1.75-1.75,98.2,98.2,0,0,1,11.35,2.62c2.62.87,11.35,7,12.22,7a.86.86,0,0,1,.88.87c0,1.75-1.75,5.24-1.75,5.24l-2.62-.88,2.62.88a12.41,12.41,0,0,1,3.49,1.74c.87.88,3.49,2.62,6.11,5.24a3.89,3.89,0,0,1,1.75,4.37l6.11,6.11v2.62l14.84,14.84v.87l-7,4.37s9.6-.88,16.59,2.62,7.85,5.24,7.85,7a41.81,41.81,0,0,1-4.36,1.75c-5.24,1.74-18.34,10.47-18.34,10.47v.88l7,1.74c7.86-7,21.82-9.6,32.3-7.85,35.8,7,60.24,30.55,65.48,50.63,0,.88.87,2.62.87,3.5,35.8-83.82,32.31-144.06,29.69-171.12ZM383.83,666.82c.87.88,1.74.88,2.62,1.75,5.24,3.49,7.85,5.24,8.73,13.09.87,6.12-.88,14.85-5.24,22.7,24.44,16.59,58.49,3.5,71.59,16.59C458.91,687.78,410,654.6,383.83,666.82ZM183,624l-1.74.88v7L183,631ZM435.34,732.3c-18.34,0-36.67-6.11-49.77-21.82v.87c-7.85,10.48-16.58,10.48-20.08,10.48s-14.84-5.24-19.2-10.48-4.37-14.84-4.37-14.84l-17.46-6.11-21.83-12.23-3.49-.87c-7,3.49-15.71.87-23.57-5.24-.87,3.49-5.24,12.22-10.48,16.59s-15.71,10.48-23.57,10.48-25.32-8.73-30.56-21,0-25.32,0-25.32l-8.73-1.74-3.49-4.37s-10.48,8.73-21.83,5.24-20.95-13.1-23.57-21.83c-1.75-8.73.87-16.58,1.75-17.46a38.92,38.92,0,0,1-1.75-9.6h-.87v-2.62c-11.35,7.86-24.45,11.35-38.42,11.35-15.71,0-30.55-5.24-42.78-13.1,1.75,19.21,7,41.91,14,67.23,9.61,34.92,41,46.27,88.18,54.13,103.89,16.59,203.42,96,196.44,144.93,26.19-21.83,54.13-54.13,82.07-102.15C463.28,744.52,452.8,732.3,435.34,732.3ZM157.71,611.82l-.88,9.6h6.11v-.87h-.87v-.87h-.87l.87-1.75.87-4.36-.87-.88V611l.87-.88.88-10.47L159.45,597a44.37,44.37,0,0,1,6.11-13.1h-2.62a35.06,35.06,0,0,0-6.11,12.23S156,607.45,156,609.2C156,611.82,157.71,611.82,157.71,611.82Zm96,58.5,4.37,14a26.87,26.87,0,0,0,10.47-15.71l-14,.87Zm7.86-21.83-7,12.22.87.87,14,.88A16.57,16.57,0,0,0,261.6,648.49Zm-87.31-27.07-.87,5.24h.87Zm66.36,33.18,7,5.24,1.75-.87,7.85-12.23C247.63,645.87,240.65,654.6,240.65,654.6ZM176,622.3l-.87-.88v6.12H176Zm2.62,1.74-.87,6.11h.87Zm1.75.88-.88,6.11h.88Zm-3.5-1.75-.87,6.11h.87Z"/><path id="Horizontal_Text" data-name="Horizontal Text" class="cls-2" d="M1025.52,691.27H974V536.74h51.51v51.51L1057,536.74h57.63l-51.51,77.7,51.51,77.7H1057l-31.43-51.51Zm295.1-114.37h28.81V536.74H1240.3V576.9h28.81V691.27h51.51ZM1229,651.11h-57.62V633.65h45.39V594.36h-45.39V576.9H1229V536.74H1119.81V691.27H1229ZM658,817.86H600.35V702.62H548.84V857.15H658Zm120.48,0H720.83V800.4h45.4V760.24h-45.4V742.78h57.62V702.62H669.32V857.15H778.45V817.86Zm571,0h-57.62V800.4h45.4V760.24h-45.4V742.78h57.62V702.62H1240.3V857.15h109.13Zm-502-203.42a80.32,80.32,0,1,1-80.32-80.32A80.1,80.1,0,0,1,847.42,614.44Zm-51.51,0a28.81,28.81,0,1,0-28.81,28.81A29.06,29.06,0,0,0,795.91,614.44Zm381.53,177.23a17.47,17.47,0,0,1-34.93,0v-89H1091v89a69,69,0,0,0,138,0v-89h-51.51ZM962.66,631c-5.23,7-19.2,11.35-28.81,11.35a28.81,28.81,0,0,1,0-57.62c9.61,0,23.58,4.36,28.81,11.35V536.74a152.61,152.61,0,0,0-28.81-3.49,80.32,80.32,0,0,0,0,160.64c7.86,0,21-.88,28.81-3.49Zm-282-45.4c0,21.82-11.35,41-30.56,44.52l39.29,61.12H631.78l-31.43-51.51v51.51H548.84V536.74h80.32c28.81,0,51.51,20.08,51.51,48.89Zm-51.51,8.73A17.52,17.52,0,0,0,611.7,576.9H600.35V611H611.7C621.3,611,629.16,604,629.16,594.36ZM881.47,834.45H841.31l-5.24,22.7H784.56l51.51-154.53h51.51l51.51,154.53H887.58l-6.11-22.7Zm-9.6-40.16-10.48-43.65-10.48,43.65Zm209.53-27.94h-74.21v37.54h23.57c-2.62,5.24-7.85,14-23.57,14-17.46,0-31.43-14.84-31.43-34.05,0-20.95,15.72-33.17,31.43-34,17.46-.87,24.45,6.11,29.68,11.35l35.8-34.05c-17.46-17.46-37.54-26.19-65.48-26.19a80.32,80.32,0,0,0,0,160.64c46.27,0,74.21-33.17,74.21-74.21V766.35Z"/><g id="Symbol"><path id="path7" class="cls-2" d="M530.5,537.61l-.87-9.6-8.73-6.11c-36.67-25.32-106.52-55-231.36-55-47.15,0-89.93,4.37-127.47,13.1a74.88,74.88,0,0,0-124,56.75,76.6,76.6,0,0,0,9.6,36.67c1.75,64.6,21.83,131.83,61.11,199.93,64.61,109.13,133.58,141.43,166.76,156.27a43.85,43.85,0,0,1,6.11,2.62l8.73,4.37,8.73-4.37c1.75-.87,4.37-1.74,6.11-2.62,34.05-14.84,102.15-47.14,165-156.27,69-119.61,62.86-206.92,60.24-235.73Z"/><path id="path22" class="cls-3" d="M270.33,631.9s11.35.87,20.95,13.1l-5.23.87-2.62-.87S275.57,635.39,270.33,631.9ZM252.87,686l-5.24-13.1h-1.75l-8.73,10.48C243.27,688.65,252.87,686,252.87,686Zm80.32-76.83L328.82,611l5.24,9.6,17.46,6.11C344.54,611.82,333.19,609.2,333.19,609.2Zm-49.76,18.34a130.55,130.55,0,0,1,10.47,14.84c8.73-8.73,27.07-12.23,50.64-11.35A205.42,205.42,0,0,0,283.43,627.54Zm-32.31-13.1a128.15,128.15,0,0,1,22.7,2.62c-8.73-6.11-22.7-9.61-22.7-9.61Zm80.32,48L316.6,675.55l11.35,3.5,11.35-12.23-6.11-2.62-1.75-1.74Zm-98.65-69s6.11,3.49,7,3.49,13.1,4.36,18.34,6.11c4.36,1.75,7,0,7.85,0s15.72-8.73,15.72-8.73c-13.1-5.24-25.32-8.73-25.32-8.73C255.49,585.63,232.79,593.49,232.79,593.49Zm89,7.85c-.87-1.74-2.62-1.74-13.1-3.49-9.6-.87-18.33-1.74-20.08-1.74a3.81,3.81,0,0,0-2.61.87s-5.24,3.49-9.61,6.11-5.24,3.49-6.11,5.24c-.87.87,1.75,4.36,1.75,4.36l7,8.73c.87,0,3.49,1.75,3.49,1.75s14-.87,22.7-1.75H328c.87,0,0-3.49-1.74-7.85C324.46,610.07,321.84,601.34,321.84,601.34ZM238.9,611a6.8,6.8,0,0,1,2.62.87c1.75,0,2.62-1.75,2.62-3.49a3.89,3.89,0,0,0-2.62-3.49h-1.75l-2.62.87-.87,6.11h.87l1.75-.87a7.91,7.91,0,0,1-.87-4.37,3.93,3.93,0,0,1,2.62-2.62s1.74,0,.87,3.49C241.52,611,238.9,611,238.9,611Zm147.55,69-7,9.6v.88h9.61A11.25,11.25,0,0,0,386.45,679.92Zm-174.61-45.4h-1.75l-4.37-.87c-4.36-.88-2.62-8.73-2.62-8.73l-5.23,1.74c-1.75-3.49-9.61-13.09-9.61-13.09l-1.74,7a94,94,0,0,1,6.11,9.6L190,632.77a8.86,8.86,0,0,0-.87,2.62,3,3,0,0,1-.88,1.75l-3.49,1.74h-.87l-12.23-9.6v7h.88a13.23,13.23,0,0,0,7,7c3.49,1.75,7.86,1.75,9.61.87,1.74.88,2.61.88,3.49,1.75,3.49,1.75,4.36.87,4.36.87l5.24-1.74h.87l.88-.88,1.74-3.49s8.73.87,12.23.87c3.49-5.23,14.84-13.09,22.7-14,7.85,0,21,1.74,31.43,12.22,9.6,10.47,7,24.44,7,24.44l19.21,6.12-8.73-6.12C282.55,646.74,266,631,266,631a46.55,46.55,0,0,0-7-.88,12.25,12.25,0,0,1-4.36-2.61A25.59,25.59,0,0,1,252,624l-1.75-3.49a31.25,31.25,0,0,0-4.37-3.49c-2.61-1.75-12.22-2.62-17.46-3.49s-5.24,0-5.24,0c14.85,3.49,19.21,4.36,20.09,5.23a12.48,12.48,0,0,0,1.74,2.62c-12.22-2.62-23.57-.87-26.19,0a7.91,7.91,0,0,1,0,8.73C217.07,631.9,211.84,634.52,211.84,634.52Zm165.88,62.86,2.62,11.35a64.59,64.59,0,0,0,5.23-6.11,21.88,21.88,0,0,0,3.5-7l-10.48.88ZM167.31,617.93l-.87,9.61h5.23l.88-6.12v3.5h.87v-5.24h-.87v-3.49l7.86,4.36.87,1.75L183,624h1.75l.87-.87v-.87c-5.23,0-5.23-2.62-5.23-2.62s.87-6.11,1.74-7.86,4.37-.87,4.37-.87l-.88-.88H183.9c-1.75-.87-7-4.36-8.73-5.23V604l.87-.87V599.6h.87c0-.88.88-.88.88-1.75,1.74,0,14.84-2.62,14.84-2.62l-12.22-2.62v-.87a40.28,40.28,0,0,1-7.86-2.62,34.85,34.85,0,0,0-6.11,12.22s-.88,12.23-.88,14c-.87,1.75,1.75,2.62,1.75,2.62Zm205.17,69,1.74,2.62.88-.87,7-8.73v-.87C378.59,679.05,372.48,686.9,372.48,686.9Zm-21-15.71-5.23-1.75-12.23,14,8.73,2.62C344.54,679.05,351.52,671.19,351.52,671.19Zm18.34,20.08c-4.37,8.73-3.49,14.84-3.49,14.84l4.36-9.6v-1.75C371.6,694.76,370.73,693,369.86,691.27Zm-4.37-56.75a27.35,27.35,0,0,1-2.62,4.36c-.87.88-7,1.75-10.47,2.62-3.49,1.75-9.61,4.37-11.35,6.12-.88.87-.88,3.49-.88,4.36a8.86,8.86,0,0,0,2.62.87l-7.85,7,1.74,1.74,19.21,6.12c4.36-3.5,10.48-4.37,10.48-4.37-3.5-1.75-18.34-7.86-22.7-9.6,0,0-2.62-.88-2.62-1.75v-2.62a50.66,50.66,0,0,1,28.81-8.73l2.62-5.24Zm11.35,76.83-3.49-10.48h-.87l-5.24,9.61.87.87A13,13,0,0,0,376.84,711.35ZM245,611.82l2.62.87a1.71,1.71,0,0,0,1.75-1.74v-3.5l-2.62-1.74-3.49-.87a2.69,2.69,0,0,1,.87,1.74H245c0-.87.87-.87.87,0,0,0,1.75.87.88,3.49C247.63,611,245.88,611.82,245,611.82Zm-7.86,48c-6.11,11.35-1.74,19.21-1.74,19.21l7.86-11.35V666Zm-56.74-67.23,10.47,2.62c.87,0,7-.87,7-.87L181.28,590Zm6.11-2.62c14,1.75,16.58,4.37,16.58,4.37a68,68,0,0,1,7.86-.87c-4.36-3.5-23.57-9.61-23.57-9.61A21.39,21.39,0,0,0,186.52,590Zm20.95,27.07c-2.62,1.74-5.24,7-4.37,11.35s1.75,4.36,4.37,4.36c-4.37-1.74-3.49-8.73,0-13.09,2.62-3.49,5.24-.88,5.24-.88S210.09,615.31,207.47,617.06Zm-62,129.21c-11.35,0-24.44,4.37-16.59,16.59,64.61,110.88,132.71,137.07,161.52,151,13.1-6.11,34-15.72,59.37-33.18,14.84-9.6,13.09-24.44,9.6-34.05C341.05,801.27,240.65,749.76,145.48,746.27ZM509.55,539.36c-26.19-18.34-90.8-51.51-219.14-51.51-44.53,0-82.07,4.36-111.75,10.47a72.59,72.59,0,0,1,10.48,38.42A75.8,75.8,0,0,1,170.8,586.5a90.46,90.46,0,0,0,10.48,2.62l1.74-4.36a4.32,4.32,0,0,1,2.62.87c0-4.37,2.62-4.37,2.62-4.37a.86.86,0,0,1,.88-.87c4.36.87,16.58,7,21.82,9.6s5.24,3.5,5.24,3.5,12.22,0,15.72-.88c3.49,0,9.6-2.62,18.33-5.24s10.48-3.49,12.22-3.49,17.46.88,31.43,2.62,27.07,7,29.69,8.73l4.36.88.87-2.62-7-2.62s.87-4.37.87-5.24a1.89,1.89,0,0,1,1.75-1.75,98.2,98.2,0,0,1,11.35,2.62c2.62.87,11.35,7,12.22,7a.86.86,0,0,1,.88.87c0,1.75-1.75,5.24-1.75,5.24l-2.62-.88,2.62.88a12.41,12.41,0,0,1,3.49,1.74c.87.88,3.49,2.62,6.11,5.24a3.89,3.89,0,0,1,1.75,4.37l6.11,6.11v2.62l14.84,14.84v.87l-7,4.37s9.6-.88,16.59,2.62,7.85,5.24,7.85,7a41.81,41.81,0,0,1-4.36,1.75c-5.24,1.74-18.34,10.47-18.34,10.47v.88l7,1.74c7.86-7,21.82-9.6,32.3-7.85,35.8,7,60.24,30.55,65.48,50.63,0,.88.87,2.62.87,3.5,35.8-83.82,32.31-144.06,29.69-171.12ZM383.83,666.82c.87.88,1.74.88,2.62,1.75,5.24,3.49,7.85,5.24,8.73,13.09.87,6.12-.88,14.85-5.24,22.7,24.44,16.59,58.49,3.5,71.59,16.59C458.91,687.78,410,654.6,383.83,666.82ZM183,624l-1.74.88v7L183,631ZM435.34,732.3c-18.34,0-36.67-6.11-49.77-21.82v.87c-7.85,10.48-16.58,10.48-20.08,10.48s-14.84-5.24-19.2-10.48-4.37-14.84-4.37-14.84l-17.46-6.11-21.83-12.23-3.49-.87c-7,3.49-15.71.87-23.57-5.24-.87,3.49-5.24,12.22-10.48,16.59s-15.71,10.48-23.57,10.48-25.32-8.73-30.56-21,0-25.32,0-25.32l-8.73-1.74-3.49-4.37s-10.48,8.73-21.83,5.24-20.95-13.1-23.57-21.83c-1.75-8.73.87-16.58,1.75-17.46a38.92,38.92,0,0,1-1.75-9.6h-.87v-2.62c-11.35,7.86-24.45,11.35-38.42,11.35-15.71,0-30.55-5.24-42.78-13.1,1.75,19.21,7,41.91,14,67.23,9.61,34.92,41,46.27,88.18,54.13,103.89,16.59,203.42,96,196.44,144.93,26.19-21.83,54.13-54.13,82.07-102.15C463.28,744.52,452.8,732.3,435.34,732.3ZM157.71,611.82l-.88,9.6h6.11v-.87h-.87v-.87h-.87l.87-1.75.87-4.36-.87-.88V611l.87-.88.88-10.47L159.45,597a44.37,44.37,0,0,1,6.11-13.1h-2.62a35.06,35.06,0,0,0-6.11,12.23S156,607.45,156,609.2C156,611.82,157.71,611.82,157.71,611.82Zm96,58.5,4.37,14a26.87,26.87,0,0,0,10.47-15.71l-14,.87Zm7.86-21.83-7,12.22.87.87,14,.88A16.57,16.57,0,0,0,261.6,648.49Zm-87.31-27.07-.87,5.24h.87Zm66.36,33.18,7,5.24,1.75-.87,7.85-12.23C247.63,645.87,240.65,654.6,240.65,654.6ZM176,622.3l-.87-.88v6.12H176Zm2.62,1.74-.87,6.11h.87Zm1.75.88-.88,6.11h.88Zm-3.5-1.75-.87,6.11h.87Z"/><path id="path24" class="cls-4" d="M509.55,539.36c2.62,32.3,7,111.75-57.62,223.5-63.74,110.88-132.71,137.07-161.52,151V897.31c53.26-28.81,99.53-75.08,136.2-148.42,42.78-84.69,48-153.66,44.52-188.58Z"/><path id="path31" class="cls-5" d="M509.55,539.36c-26.19-18.34-90.8-51.51-219.14-51.51-44.53,0-82.07,4.36-111.75,10.47a71,71,0,0,1,10.48,33.18,525,525,0,0,1,107.38-8.73c82.07.87,148.42,19.21,175.49,37.54l37.54-20.95"/><circle id="circle40" class="cls-6" cx="114.05" cy="536.74" r="54.13"/></g></g></g></svg>