<svg xmlns="http://www.w3.org/2000/svg" viewBox="0 0 847.87 331.37"><defs><style>.cls-1{fill:none;}.cls-2{fill:#010101;}</style></defs><g id="Laag_2" data-name="Laag 2"><g id="Laag_1-2" data-name="Laag 1"><rect class="cls-1" width="847.87" height="331.37"/><g id="Window_Logo" data-name="Window Logo"><polygon class="cls-2" points="117.49 162.29 209.19 162.29 209.19 81.59 117.49 94.69 117.49 162.29"/><polygon class="cls-2" points="110.79 162.29 110.79 95.59 41.19 105.59 41.19 162.29 110.79 162.29"/><polygon class="cls-2" points="110.79 168.89 41.19 168.89 41.19 226.39 110.79 236.09 110.79 168.89"/><polygon class="cls-2" points="117.49 168.89 117.49 236.99 209.19 249.79 209.19 168.89 117.49 168.89"/></g><g id="Word_Group" data-name="Word Group"><path class="cls-2" d="M390,115.59l-28.4,100.5h-13.8l-20.7-73.5a45.07,45.07,0,0,1-1.5-10.2h-.3a63.2,63.2,0,0,1-1.9,10L302.59,216h-13.7l-29.4-100.5h12.9l21.4,77.1a61.31,61.31,0,0,1,1.8,10.1h.3a46.71,46.71,0,0,1,2.1-10.1l22.3-77.1h11.4l21.2,77.6a52.92,52.92,0,0,1,1.7,9.3h.3a66.24,66.24,0,0,1,1.9-9.6l20.5-77.4H390Z"/><path class="cls-2" d="M413,120.49a7.32,7.32,0,0,1-2.2,5.4,7.57,7.57,0,0,1-5.3,2.1,7.24,7.24,0,0,1-5.3-2.1,7.61,7.61,0,0,1-.1-10.6,7,7,0,0,1,5.4-2.2,7.32,7.32,0,0,1,5.4,2.2A7.42,7.42,0,0,1,413,120.49Zm-2,95.6h-11.5v-71.8H411Z"/><path class="cls-2" d="M488.09,216.09h-11.5v-40.9c0-15.2-5.6-22.8-16.7-22.8a18.08,18.08,0,0,0-14.2,6.4c-3.8,4.3-5.7,9.7-5.7,16.4v40.9h-11.5v-71.8H440v11.9h.3c5.4-9.1,13.2-13.7,23.5-13.7,7.9,0,13.9,2.6,18,7.7s6.2,12.4,6.2,21.9v44Z"/><path class="cls-2" d="M567.79,216.09h-11.5v-12.2H556c-5.3,9.3-13.5,13.9-24.7,13.9-9.1,0-16.3-3.3-21.7-9.8s-8.1-15.2-8.1-26.1c0-11.9,3-21.4,8.9-28.6s13.9-10.8,23.9-10.8c9.8,0,17,3.9,21.5,11.6h.3v-44.4h11.5v106.4Zm-11.4-32.4v-10.6a20.2,20.2,0,0,0-5.9-14.8,19.61,19.61,0,0,0-14.4-5.9,20.12,20.12,0,0,0-16.5,7.7c-4.1,5.1-6.1,12.2-6.1,21.3q0,12.3,5.7,19.5c3.8,4.8,9,7.2,15.5,7.2a20,20,0,0,0,15.6-6.9C554.29,196.59,556.39,190.79,556.39,183.69Z"/><path class="cls-2" d="M652.79,180c0,11.4-3.2,20.6-9.7,27.5s-15.1,10.4-26,10.4c-10.6,0-19.1-3.4-25.4-10.1s-9.5-15.6-9.5-26.7c0-11.9,3.2-21.2,9.7-28.1s15.4-10.3,26.8-10.3c10.7,0,19,3.3,25,10S652.79,168.39,652.79,180Zm-11.7.4q0-13.5-6-20.7t-17.1-7.2c-7.4,0-13.2,2.5-17.5,7.4s-6.4,11.9-6.4,20.8c0,8.6,2.2,15.3,6.5,20.1s10.1,7.3,17.5,7.3,13.2-2.4,17.2-7.1C639.09,196.09,641.09,189.29,641.09,180.39Z"/><path class="cls-2" d="M757.59,144.39l-21.5,71.8h-11.9l-14.8-51.4a34.75,34.75,0,0,1-1.1-6.6H708a25.81,25.81,0,0,1-1.5,6.4l-16,51.5H679l-21.7-71.8h12.1l14.8,54a37.41,37.41,0,0,1,1,6.4h.6a28.15,28.15,0,0,1,1.3-6.6l16.5-53.8h10.5l14.9,54.1a35.88,35.88,0,0,1,1,6.4h.6a26.78,26.78,0,0,1,1.1-6.4l14.6-54.1h11.3Z"/><path class="cls-2" d="M806.69,196.89a18.39,18.39,0,0,1-7.2,15.1c-4.8,3.9-11.2,5.8-19.1,5.8a35.28,35.28,0,0,1-17.8-4.3v-12.3a29,29,0,0,0,18.6,6.9c9.1,0,13.7-3.3,13.7-10a8.67,8.67,0,0,0-2.7-6.6c-1.8-1.7-5.8-4-12.1-6.9-6.4-2.7-10.8-5.6-13.5-8.7s-3.9-7.2-3.9-12.4a18.89,18.89,0,0,1,7.1-14.9c4.8-4,10.8-6,18.1-6a33.12,33.12,0,0,1,15.3,3.4v11.6a27,27,0,0,0-16.3-5.1c-3.8,0-6.8.9-9.1,2.8a9,9,0,0,0-3.5,7.2c0,3.2.9,5.6,2.7,7.3s5.4,3.7,11,6.1c6.8,2.9,11.6,5.9,14.4,9.1A16.75,16.75,0,0,1,806.69,196.89Z"/></g></g></g></svg>