<svg xmlns="http://www.w3.org/2000/svg" viewBox="0 0 847.87 331.37"><defs><style>.cls-1{fill:none;}.cls-2{fill:#010101;}</style></defs><g id="Laag_2" data-name="Laag 2"><g id="Laag_1-2" data-name="Laag 1"><rect class="cls-1" width="847.87" height="331.37"/><path class="cls-1" d="M791.65,113.88H308.91V211.6H792.58V113.88Z"/><path class="cls-1" d="M791.65,113.88H308.91V211.6H792.58V113.88Z"/><path class="cls-2" d="M541,184.51v-45c0-9.18,4.28-15.76,13.42-15.76h56.38a.73.73,0,0,0,.68-.68v-9a.6.6,0,0,0-.06-.22H542.48c-14.94,1.9-22.24,12.31-22.24,25.62v45c0,9.19-4.4,15.76-13.42,15.76H447.28a.65.65,0,0,0-.67.68v9a.77.77,0,0,0,.49.75h67.6c17.61-.46,26.29-11.71,26.29-26.14ZM309.37,210.65h19.8a.78.78,0,0,0,.49-.75V181.22c0-9.18,5.19-15.53,12.74-15.53h81.54c18.38,0,27.29-11.34,27.29-26.19,0-13.31-7.29-23.72-22.24-25.62H309a.44.44,0,0,0-.1.22v9a.6.6,0,0,0,.68.68H417.06c9.13,0,13.42,6.58,13.42,15.76s-4.29,15.76-13.42,15.76H332c-13.19,0-23.12,11.22-23.12,26V209.9a.71.71,0,0,0,.46.75Z"/><path class="cls-1" d="M628.61,189.83H719.4a.73.73,0,0,0,.67-.68V133.26a1,1,0,0,0-1.7-.9l-90.32,55.89c-.57.34-.8.68-.68,1.13.11.23.45.45,1.24.45Z"/><path class="cls-2" d="M611.14,200.26H719.4a.51.51,0,0,1,.55.46v9.18a.66.66,0,0,0,.68.68h19.51a.65.65,0,0,0,.68-.68v-9a.73.73,0,0,1,.67-.68h19.4a.64.64,0,0,0,.67-.67v-9.08a.65.65,0,0,0-.67-.68h-19.4a.73.73,0,0,1-.67-.67V123.74c0-5.34-2-8.74-5.32-9.86h-5.65a21.65,21.65,0,0,0-5.72,2.49l-116.6,72c-4.51,2.83-6.09,6-5,8.39.9,2,3.48,3.51,8.57,3.51Zm16.91-12,90.32-55.89a1,1,0,0,1,1.7.9v55.9a.72.72,0,0,1-.67.67H628.61c-.78,0-1.13-.22-1.24-.45-.12-.45.11-.79.68-1.13Z"/><path class="cls-2" d="M113.08,77.75c8.79,1.64,17.44,4,26,6.42,4.92,1.43,9.83,2.91,14.71,4.48,7.66,2.44,15.29,5.21,22.23,9.33a43.47,43.47,0,0,1,8.64,6.62,32.78,32.78,0,0,1,6.69,9.39c3,6.32,4.06,13.38,4.37,20.32a62.82,62.82,0,0,1-.71,13.56A32.15,32.15,0,0,1,191,159a20.11,20.11,0,0,1-7.49,7.22,19.74,19.74,0,0,1-9.73,2.29c-5.11.06-10.07-1.57-14.65-3.71-.09-15.24,0-30.49,0-45.73a43.11,43.11,0,0,0-.4-8.27,9.67,9.67,0,0,0-2.91-5.66,8.4,8.4,0,0,0-3.94-1.85,4.07,4.07,0,0,0-3.89,1.5,10.92,10.92,0,0,0-1.94,6.64q0,61.21,0,122.44l-32.93-10.45q0-72.82,0-145.63ZM63.73,181C78,176,92.34,170.84,106.66,165.79c0,5.62,0,11.24,0,16.87a21.69,21.69,0,0,1,0,2.28C95.3,189,84,193,72.69,197.07a12.39,12.39,0,0,0-4.38,2.46,2.18,2.18,0,0,0-.72,2.2,3.91,3.91,0,0,0,2.25,1.85,23.39,23.39,0,0,0,7.84,1.28,43.91,43.91,0,0,0,8.78-.91,35.26,35.26,0,0,0,5.69-1.74c4.83-1.75,9.66-3.51,14.5-5.24,0,4.76,0,9.51,0,14.27,0,.95,0,1.91,0,2.86a112.14,112.14,0,0,1-18,1.88,107.12,107.12,0,0,1-35.91-5.41,32.36,32.36,0,0,1-10.72-5,12.2,12.2,0,0,1-4.09-5.13,7.07,7.07,0,0,1,.21-5.51,10.49,10.49,0,0,1,3.73-4.09,62.83,62.83,0,0,1,11.43-6c3.42-1.46,7-2.59,10.46-3.86Z"/><path class="cls-2" d="M178.9,174.62c3.25-.37,6.51-.46,9.78-.58a107.71,107.71,0,0,1,31.8,4.6c2,.61,4,1.41,6,2.05a30.15,30.15,0,0,1,10,5.46c1.72,1.57,3.2,3.69,3.22,6.1a7.59,7.59,0,0,1-2.06,5.3,29.26,29.26,0,0,1-8.85,6.23,100.32,100.32,0,0,1-10.71,4.2l-65.82,23.64q0-9.21,0-18.43c0-.24-.1-.67.24-.74l50.08-17.85c2.25-.84,4.68-1.45,6.6-3,.78-.62,1.55-1.6,1.16-2.65a3.91,3.91,0,0,0-2.24-1.82,23.05,23.05,0,0,0-7.87-1.26,39.32,39.32,0,0,0-12.32,1.88c-11.89,4.17-23.76,8.38-35.65,12.54v-19.8a123.3,123.3,0,0,1,26.64-5.89Z"/></g></g></svg>