<svg xmlns="http://www.w3.org/2000/svg" viewBox="0 0 847.87 331.37"><defs><style>.cls-1{fill:none;}.cls-2,.cls-3{fill:#010101;}.cls-2{fill-rule:evenodd;}</style></defs><g id="Laag_2" data-name="Laag 2"><g id="Laag_1-2" data-name="Laag 1"><rect class="cls-1" width="847.87" height="331.37"/><g id="layer1"><path id="rect840" class="cls-2" d="M564.21,114A27.92,27.92,0,0,0,536.3,142v47.63a15.78,15.78,0,0,1-15.78,15.78H466.78V217.2h63.91a27.92,27.92,0,0,0,27.92-27.92V141.65a15.77,15.77,0,0,1,15.78-15.78h54.73V114Z"/><path id="path916" class="cls-2" d="M323.38,114v11.83H435.63a16.2,16.2,0,0,1,0,32.39H351.3a27.92,27.92,0,0,0-27.92,27.92v31h22.31V185.87a15.79,15.79,0,0,1,15.78-15.78h84.64a28,28,0,0,0,0-56Z"/><path id="path929" class="cls-2" d="M650.62,114v38.52a17.53,17.53,0,0,0,17.53,17.53h93.41a17.64,17.64,0,1,1,0,35.28H650.62V217.2H772a29.47,29.47,0,1,0,0-58.94H680a7,7,0,0,1-7.05-7V125.87H797.46V114Z"/><path id="path72" class="cls-3" d="M128.93,80.5v159l36,11.42V117.54c0-6.23,2.78-10.42,7.27-9,5.88,1.62,7,7.37,7,13.61v53.25c22.43,10.82,40.07,0,40.07-28.58,0-29.33-10.33-42.33-40.78-52.81-12-4-34.25-10.73-49.55-13.56"/><path id="path76" class="cls-3" d="M171.71,227.65,229.57,207c6.56-2.35,7.57-5.69,2.24-7.43s-15-1.23-21.54,1.11l-38.56,13.59V192.68l2.22-.74a132.29,132.29,0,0,1,26.8-5.69c15.67-1.7,34.85.22,49.9,5.95,17,5.37,18.88,13.25,14.58,18.69s-14.88,9.33-14.88,9.33l-78.62,28.24Z"/><path id="path80" class="cls-3" d="M62.94,225.45c-17.41-4.91-20.32-15.11-12.39-21,7.36-5.44,19.84-9.53,19.84-9.53L122,176.61v20.87L84.84,210.77c-6.56,2.35-7.55,5.69-2.24,7.41s15,1.26,21.55-1.1l17.8-6.45v18.7l-3.54.58a116.83,116.83,0,0,1-55.47-4.46"/></g></g></g></svg>