<svg xmlns="http://www.w3.org/2000/svg" viewBox="0 0 847.87 331.37"><defs><style>.cls-1{fill:none;}.cls-2{fill:#010101;}</style></defs><g id="Laag_2" data-name="Laag 2"><g id="Laag_1-2" data-name="Laag 1"><rect class="cls-1" width="847.87" height="331.37"/><path class="cls-2" d="M529,213.72,499.05,173.1l-29.89,40.62H456.84l36-49.08L460,120h12.32l26.77,36.38L525.83,120h12.3l-32.83,44.6,36,49.09Zm-233.21,0-36-49.07L292.61,120H280.29l-26.78,36.39L226.75,120H214.47l32.84,44.6-36,49.07h12.33l29.9-40.6,29.92,40.6Z"/><path class="cls-2" d="M364.25,168.18a26.54,26.54,0,0,0-6.14-3.91,21.23,21.23,0,0,0,11.26-18.76c0-6-2.21-25.49-30.45-25.49h-38v40.39H288.21c-1.64,2.14-5.38,7.29-6.8,9.4h19.47V213.7h38.05c20.6,0,33.4-10.46,33.4-27.35a23.12,23.12,0,0,0-8.08-18.18M311.39,129.8h27.54c7.44,0,19.92,1.86,19.92,14.89,0,9.85-7.26,15.72-19.92,15.72H311.39V129.8Zm27.53,74.14H311.39v-34.1h27.53c10.43,0,22.92,2.88,22.92,16.31,0,15.47-14.36,17.79-22.92,17.79m82.9-86.07c-26.31,0-44.71,20.13-44.71,48.95s18.4,49,44.71,49,44.63-20.1,44.63-49-18.34-48.95-44.63-48.95m0,88c-20.05,0-34.1-16.06-34.1-39.05s14-39,34.1-39,34,16.06,34,39.05-14,39.05-34,39.05M50.68,110l-.07.06h0a78.06,78.06,0,0,0-7.27,102.86.35.35,0,0,0,.42.14.32.32,0,0,0,.09-.41c-6-18.41,24.47-63,40.2-81.73a.38.38,0,0,0,.11-.23.33.33,0,0,0-.15-.25c-26.44-26.32-33.5-20.31-33.4-20.39M160.26,110l.07.06h0a78.08,78.08,0,0,1,7.26,102.86.29.29,0,1,1-.51-.27c6-18.41-24.45-63.06-40.16-81.77a.35.35,0,0,1-.12-.22.34.34,0,0,1,.15-.26c26.45-26.33,33.47-20.27,33.38-20.35M105.47,87.55A77,77,0,0,1,146.15,99a.29.29,0,0,1-.25.52c-15.12-3.27-38.1,9.79-40.27,11.1a.28.28,0,0,1-.16.06.32.32,0,0,1-.17-.06c-5.77-3.31-27-14.45-40.38-11-.15,0-.32,0-.38-.14a.32.32,0,0,1,.13-.39,77,77,0,0,1,40.8-11.5m0,62.63a.53.53,0,0,1,.25.12c23.36,17.77,63.36,61.7,51.15,74.12h0a78,78,0,0,1-102.81,0h0C41.87,212,81.86,168.07,105.2,150.3a.56.56,0,0,1,.27-.12M723.08,120v76.88L666.45,120h-9.29v93.6h10.43V138.38l55.47,75.24h10.46V120ZM603,117.86c-26.31,0-44.71,20.13-44.71,48.94s18.4,49,44.71,49,44.63-20.14,44.63-49S629.32,117.86,603,117.86m0,88c-20,0-34.1-16.06-34.1-39.07S583,127.75,603,127.75s34,16.07,34,39.05-14,39.07-34,39.07m152.68-1.4V169.84h51.54v-9.17H755.71V129.12h55V120H745.22v93.66H811.4v-9.16Z"/></g></g></svg>