<svg xmlns="http://www.w3.org/2000/svg" viewBox="0 0 481.58 323.14"><defs><style>.cls-1{fill:#fdae37;}.cls-2{fill:#fff;}</style></defs><g id="Laag_2" data-name="Laag 2"><g id="Layer_1" data-name="Layer 1"><path class="cls-1" d="M349.09,39.84c-.26-.78-.54-2-.87-3.41-2.17-8.84-4.21-17.19-12.29-20.27L297.61,1.58a24.05,24.05,0,0,0-22.32,2.76l-2.37,2.12c-1.92,2.2-4.53,5-6.39,6.72H195.91c-1.57-1.65-3.66-4.07-5.41-6.24l-2.74-2.57a23.89,23.89,0,0,0-22.3-2.79L127.09,16.16c-8,3.05-10,11.31-12.19,20.07a11.78,11.78,0,0,0-.51,2.54h0c-13.06,25.76-75.21,156.18-17,194.68a22.15,22.15,0,0,0,27-2.13L170,190.42a21.53,21.53,0,0,1,14.37-5.59h94.38a21.57,21.57,0,0,1,14.37,5.59l45.59,40.89a22.49,22.49,0,0,0,15,5.81,21.22,21.22,0,0,0,12.28-3.89C417.28,197.21,371,85.41,349.09,39.84ZM283.75,52.69a13.17,13.17,0,1,1-13.17,13.17A13.17,13.17,0,0,1,283.75,52.69Zm-79,65.86H191.55v13.17a13.17,13.17,0,0,1-26.34,0V118.55H152a13.17,13.17,0,1,1,0-26.34h13.17V79a13.17,13.17,0,1,1,26.34,0V92.21h13.17a13.17,13.17,0,0,1,0,26.34Zm52.69-13.17a13.17,13.17,0,1,1,13.17-13.17A13.17,13.17,0,0,1,257.41,105.38Zm26.34,26.34a13.17,13.17,0,1,1,13.17-13.17A13.17,13.17,0,0,1,283.75,131.72Zm26.34-26.34a13.17,13.17,0,1,1,13.17-13.17A13.17,13.17,0,0,1,310.09,105.38Z"/><path class="cls-2" d="M40.55,315A23.19,23.19,0,0,1,31.28,321a33.73,33.73,0,0,1-12.27,2,19.67,19.67,0,0,1-10-2.53,16.6,16.6,0,0,1-6.53-7.21A26.38,26.38,0,0,1,0,302.48a41.44,41.44,0,0,1,.31-6.82l1.58-10.59q2-13.35,8.7-20.65T28,257.34q9.15.18,13.78,5.52t4.72,15.8l-12.26-.05-.13-3.51q-.57-6.86-6.72-7.08-9.1-.34-11.95,12l-.66,3.3L13,295.66a41.3,41.3,0,0,0-.44,7.21c.15,3.28.88,5.66,2.22,7.14a7.45,7.45,0,0,0,5.64,2.31,15.28,15.28,0,0,0,7.65-2.24l2.24-11.78H21.52l1.71-9.76H44.59Z"/><path class="cls-2" d="M80.1,309.11h-17l-5.58,13.1H43.8l30.5-64H85.86l8.39,64h-13ZM67.71,298.34H79.22l-1.8-22.67Z"/><path class="cls-2" d="M128,258.22l3.73,46,19.64-46H168l-11.12,64H144.17l3.08-17.71,5.53-25.27-19.6,43h-8.56l-4.84-44.43-3.65,27.55-2.9,16.88H100.62l11.08-64Z"/><path class="cls-2" d="M204.16,294.52H184.64l-2.94,17h23.12l-1.89,10.73H167.24l11.08-64H214L212.07,269h-23l-2.63,15.12H206Z"/><path class="cls-2" d="M231.09,322.21l11.08-64,17.71,0q9.22,0,14.06,4.46t4.26,12.68q-.74,9.75-10.19,14.15a9.17,9.17,0,0,1,5,4.9,17.86,17.86,0,0,1,1.23,8.59q-.66,8.91-6.35,14t-15.28,5.12Zm17.45-27.82-3,17.09,7.39.09a8.23,8.23,0,0,0,6.57-3.05q2.39-3,2.48-8.46c0-3.52-1.48-5.39-4.44-5.63Zm1.58-9.4,6,.08q4.78-.09,7.25-3.25a11.4,11.4,0,0,0,2.11-8.08q-.43-4.44-5.27-4.71l-7.25,0Z"/><path class="cls-2" d="M332.65,258.22l-7.47,43.95q-1.37,10-7.42,15.55t-15.91,5.41q-9.24-.18-14-5.8t-3.64-15.16l7.47-43.95h12.65l-7.38,44-.18,3.78q0,6.15,6.11,6.37a8.5,8.5,0,0,0,6.59-2.24q2.38-2.37,3.12-7.91l7.43-44Z"/><path class="cls-2" d="M330.85,322.21l11.08-64,15.77,0a20.53,20.53,0,0,1,11.8,3.64,19.05,19.05,0,0,1,6.9,9.63,30.38,30.38,0,0,1,1.12,13.75l-1.41,9.36q-1.92,12.93-9.33,20.22t-18.61,7.34ZM352.69,269l-7.38,42.49,3.12.09q6.54,0,10.15-3.8t4.83-12.24l1.5-10.37a46.27,46.27,0,0,0,.48-7.38q-.21-4.39-2.24-6.51a8.35,8.35,0,0,0-6-2.24Z"/><path class="cls-2" d="M380.6,322.21l11.07-64,15.78,0a20.53,20.53,0,0,1,11.8,3.64,19.11,19.11,0,0,1,6.9,9.63,30.52,30.52,0,0,1,1.12,13.75l-1.41,9.36q-1.94,12.93-9.34,20.22t-18.61,7.34ZM402.44,269l-7.38,42.49,3.12.09q6.54,0,10.15-3.8t4.83-12.24l1.49-10.37a45.39,45.39,0,0,0,.49-7.38q-.22-4.39-2.24-6.51a8.35,8.35,0,0,0-6-2.24Z"/><path class="cls-2" d="M453.11,286.83l14.28-28.61h14.19l-24.08,41.4-3.91,22.59H440.8L445,298.34l-9.49-40.12h13.27Z"/></g></g></svg>